<?xml version="1.0" encoding="utf-8"?>
<!-- Generator: Adobe Illustrator 26.5.0, SVG Export Plug-In . SVG Version: 6.00 Build 0)  -->
<svg version="1.1" id="Calque_1" xmlns="http://www.w3.org/2000/svg" xmlns:xlink="http://www.w3.org/1999/xlink" x="0px" y="0px"
	 viewBox="0 0 375 371" style="enable-background:new 0 0 375 371;" xml:space="preserve">
<style type="text/css">
	.st0{clip-path:url(#SVGID_00000181805655796623550450000009716615328762865296_);}
	.st1{fill:#FFE4E8;}
</style>
<g>
	<defs>
		<rect id="SVGID_1_" y="0" width="375" height="371"/>
	</defs>
	<clipPath id="SVGID_00000075852589046806680180000009040353648091004080_">
		<use xlink:href="#SVGID_1_"  style="overflow:visible;"/>
	</clipPath>
	<g id="Groupe_de_masques_1" style="clip-path:url(#SVGID_00000075852589046806680180000009040353648091004080_);">
		<g id="Groupe_40206">
			<g id="Tracé_2096">
				<path class="st1" d="M-130.2,246.3c-1,0-1.7-0.8-1.7-1.8l0,0c0-1,0.8-1.7,1.8-1.7l0,0c1,0,1.7,0.8,1.7,1.8l0,0
					C-128.5,245.5-129.2,246.3-130.2,246.3L-130.2,246.3C-130.2,246.3-130.2,246.3-130.2,246.3z M-124.9,244.5
					c-0.1-1,0.6-1.8,1.6-1.9l0,0c1-0.1,1.8,0.6,1.9,1.5l0,0c0.1,1-0.6,1.8-1.6,1.9l0,0c-0.1,0-0.1,0-0.2,0l0,0
					C-124.1,246-124.8,245.3-124.9,244.5z M-137.4,245.6L-137.4,245.6c-0.9-0.2-1.6-1-1.4-2l0,0c0.1-1,1-1.6,2-1.5l0,0l0,0l0,0
					c1,0.2,1.6,1,1.5,2l0,0c-0.1,0.9-0.9,1.5-1.7,1.5l0,0C-137.2,245.6-137.3,245.6-137.4,245.6z M-118,243.4
					c-0.3-0.9,0.3-1.9,1.2-2.2l0,0c0,0,0,0,0,0l0,0c0.9-0.2,1.9,0.3,2.1,1.2l0,0c0.3,0.9-0.3,1.9-1.2,2.2l0,0
					c-0.1,0-0.3,0.1-0.5,0.1l0,0C-117.1,244.7-117.8,244.2-118,243.4z M-144.4,244c-0.9-0.2-1.5-1.2-1.2-2.1l0,0
					c0.2-0.9,1.2-1.5,2.2-1.2l0,0c0.9,0.2,1.5,1.2,1.2,2.1l0,0c-0.2,0.8-0.9,1.3-1.7,1.3l0,0C-144.1,244.1-144.2,244.1-144.4,244z
					 M-111.3,241.3c-0.4-0.9,0-1.9,0.9-2.3l0,0c0.9-0.4,1.9,0,2.3,0.9l0,0c0.4,0.9,0,1.9-0.9,2.3v0c-0.2,0.1-0.5,0.2-0.7,0.2l0,0
					C-110.4,242.3-111.1,241.9-111.3,241.3z M-151.2,241.9c-0.9-0.3-1.4-1.3-1-2.2l0,0c0.3-0.9,1.3-1.4,2.2-1l0,0
					c0.9,0.3,1.4,1.3,1,2.2l0,0c-0.3,0.7-0.9,1.2-1.6,1.2l0,0C-150.8,242-151,241.9-151.2,241.9z M-157.8,239.2
					c-0.9-0.4-1.3-1.4-0.9-2.3l0,0c0.4-0.9,1.4-1.3,2.3-0.9l0,0c0.9,0.4,1.3,1.4,0.9,2.3l0,0c-0.3,0.6-0.9,1-1.6,1l0,0
					C-157.3,239.3-157.6,239.3-157.8,239.2z M-105.1,238.2c-0.5-0.8-0.2-1.9,0.6-2.4l0,0c0.8-0.5,1.9-0.2,2.4,0.6l0,0
					c0.5,0.8,0.2,1.9-0.6,2.4h0c-0.3,0.2-0.6,0.3-0.9,0.3l0,0C-104.2,239.1-104.8,238.8-105.1,238.2z M-164.2,236
					c-0.8-0.5-1.2-1.5-0.7-2.4l0,0c0.5-0.9,1.5-1.2,2.4-0.7l0,0c0,0,0,0,0,0l0,0c0.9,0.5,1.2,1.5,0.7,2.4l0,0
					c-0.3,0.6-0.9,0.9-1.5,0.9l0,0C-163.6,236.2-163.9,236.2-164.2,236z M-99.2,234.4c-0.6-0.8-0.5-1.9,0.3-2.5l0,0l0,0l0,0
					c0.8-0.6,1.9-0.5,2.5,0.3l0,0c0.6,0.8,0.5,1.9-0.3,2.5l0,0c-0.3,0.3-0.7,0.4-1.1,0.4l0,0C-98.4,235.1-98.9,234.9-99.2,234.4z
					 M-170.4,232.6c-0.8-0.5-1.1-1.6-0.6-2.4l0,0c0.5-0.8,1.6-1.1,2.4-0.6l0,0c0.8,0.5,1.1,1.6,0.6,2.4l0,0
					c-0.3,0.5-0.9,0.9-1.5,0.9l0,0C-169.8,232.8-170.1,232.7-170.4,232.6z M-93.9,229.9c-0.7-0.7-0.7-1.8,0-2.5l0,0
					c0.7-0.7,1.8-0.7,2.5,0l0,0c0.7,0.7,0.7,1.8,0,2.5l0,0c-0.3,0.3-0.8,0.5-1.2,0.5l0,0C-93.1,230.4-93.6,230.3-93.9,229.9z
					 M-176.4,228.8c-0.8-0.5-1-1.6-0.5-2.4l0,0c0.5-0.8,1.6-1,2.4-0.5l0,0c0.8,0.5,1,1.6,0.5,2.4l0,0c-0.3,0.5-0.9,0.8-1.5,0.8l0,0
					C-175.7,229.1-176.1,229-176.4,228.8z M-89.2,224.8c-0.8-0.6-0.9-1.7-0.3-2.5l0,0l0,0l0,0c0.6-0.8,1.7-0.9,2.5-0.3l0,0
					c0.8,0.6,0.9,1.7,0.3,2.5l0,0c-0.3,0.4-0.9,0.7-1.4,0.7l0,0C-88.5,225.2-88.8,225-89.2,224.8z M-182.2,224.8
					c-0.8-0.5-1-1.6-0.4-2.4l0,0c0.6-0.8,1.7-1,2.4-0.4l0,0c0.8,0.6,1,1.7,0.4,2.4l0,0c-0.3,0.5-0.9,0.7-1.4,0.7l0,0
					C-181.5,225.1-181.9,225-182.2,224.8z M-187.9,220.6c-0.8-0.6-0.9-1.7-0.3-2.5l0,0c0.6-0.8,1.7-0.9,2.5-0.3l0,0
					c0.8,0.6,0.9,1.7,0.3,2.5l0,0c-0.3,0.4-0.9,0.7-1.4,0.7l0,0C-187.2,221-187.6,220.9-187.9,220.6z M-85,219.2
					c-0.8-0.5-1.1-1.6-0.6-2.4l0,0c0.5-0.8,1.6-1.1,2.4-0.6l0,0c0.8,0.5,1.1,1.6,0.6,2.4l0,0c-0.3,0.5-0.9,0.8-1.5,0.8l0,0
					C-84.4,219.4-84.8,219.3-85,219.2z M-193.4,216.3c-0.7-0.6-0.9-1.7-0.2-2.5l0,0c0.6-0.8,1.7-0.9,2.5-0.3l0,0
					c0.8,0.6,0.9,1.7,0.2,2.5l0,0c-0.3,0.4-0.8,0.7-1.4,0.7l0,0C-192.7,216.6-193.1,216.5-193.4,216.3z M-81.5,213.1
					c-0.9-0.4-1.2-1.5-0.8-2.4l0,0c0.4-0.9,1.5-1.2,2.4-0.8l0,0c0.9,0.4,1.2,1.5,0.8,2.4l0,0c-0.3,0.6-0.9,1-1.6,1l0,0
					C-81,213.3-81.2,213.3-81.5,213.1z M-198.8,211.7c-0.7-0.6-0.8-1.7-0.2-2.5l0,0c0.6-0.7,1.7-0.8,2.5-0.2l0,0
					c0.7,0.6,0.8,1.7,0.2,2.5l0,0c-0.3,0.4-0.8,0.6-1.3,0.6l0,0C-198.1,212.2-198.5,212-198.8,211.7z M-204.1,207.1L-204.1,207.1
					c-0.7-0.6-0.8-1.8-0.1-2.5l0,0c0.6-0.7,1.8-0.8,2.5-0.1l0,0c0.7,0.6,0.8,1.8,0.1,2.5l0,0c-0.4,0.4-0.8,0.6-1.3,0.6l0,0
					C-203.4,207.5-203.8,207.4-204.1,207.1z M-78.5,206.8c-0.9-0.4-1.3-1.4-1-2.3l0,0c0.4-0.9,1.4-1.3,2.3-1l0,0
					c0.9,0.4,1.3,1.4,1,2.3v0c-0.3,0.7-0.9,1.1-1.6,1.1l0,0C-78.1,206.9-78.3,206.9-78.5,206.8z M-209.3,202.3
					c-0.7-0.7-0.7-1.8-0.1-2.5l0,0c0.7-0.7,1.8-0.7,2.5-0.1l0,0l0,0l0,0c0.7,0.7,0.7,1.8,0.1,2.5l0,0c-0.3,0.4-0.8,0.6-1.3,0.6l0,0
					C-208.6,202.8-209,202.6-209.3,202.3z M-76,200.3c-0.9-0.3-1.4-1.3-1.1-2.2l0,0c0.3-0.9,1.3-1.4,2.2-1.1l0,0
					c0.9,0.3,1.4,1.3,1.1,2.2l0,0c-0.2,0.7-0.9,1.2-1.7,1.2l0,0C-75.6,200.4-75.8,200.3-76,200.3z M-214.4,197.5
					c-0.7-0.7-0.7-1.8,0-2.5l0,0c0.7-0.7,1.8-0.7,2.5,0l0,0l0,0l0,0c0.7,0.7,0.7,1.8,0,2.5l0,0c-0.4,0.3-0.8,0.5-1.3,0.5l0,0
					C-213.6,198-214.1,197.8-214.4,197.5z M-73.9,193.6c-0.9-0.2-1.5-1.2-1.2-2.1l0,0c0.2-0.9,1.2-1.5,2.1-1.2l0,0
					c0.9,0.2,1.5,1.2,1.2,2.1l0,0c-0.2,0.8-0.9,1.3-1.7,1.3l0,0C-73.6,193.7-73.7,193.6-73.9,193.6z M-219.4,192.5
					c-0.7-0.7-0.7-1.8,0-2.5l0,0c0.7-0.7,1.8-0.7,2.5,0l0,0c0,0,0,0,0,0l0,0c0.7,0.7,0.7,1.8,0,2.5l0,0c-0.4,0.3-0.8,0.5-1.2,0.5
					l0,0C-218.6,193-219.1,192.8-219.4,192.5z M-224.3,187.5L-224.3,187.5c-0.7-0.7-0.6-1.8,0-2.5l0,0c0.7-0.7,1.8-0.6,2.5,0l0,0
					l0,0l0,0c0.7,0.7,0.6,1.8-0.1,2.5l0,0c-0.3,0.3-0.8,0.5-1.2,0.5l0,0C-223.5,188-224,187.8-224.3,187.5z M-72.1,186.8
					c-0.9-0.2-1.5-1.1-1.3-2.1l0,0c0.2-1,1.2-1.5,2.1-1.3l0,0c0.9,0.2,1.5,1.1,1.3,2.1l0,0c-0.2,0.8-0.9,1.4-1.7,1.4l0,0
					C-71.9,186.9-72,186.8-72.1,186.8z M-229.2,182.4c-0.7-0.7-0.6-1.8,0.1-2.5l0,0c0.7-0.7,1.8-0.6,2.5,0.1l0,0
					c0.7,0.7,0.6,1.8-0.1,2.5l0,0c-0.3,0.3-0.8,0.5-1.2,0.5l0,0C-228.4,182.9-228.8,182.7-229.2,182.4z M119.6,181.2
					c-1,0-1.7-0.9-1.6-1.8l0,0c0.1-1,0.9-1.7,1.9-1.7l0,0c1,0.1,1.7,0.9,1.6,1.9l0,0c-0.1,0.9-0.8,1.6-1.8,1.6l0,0
					C119.7,181.2,119.6,181.2,119.6,181.2z M124.9,179.6c-0.1-1,0.6-1.8,1.6-1.9l0,0c0,0,0,0,0,0l0,0c1-0.1,1.8,0.6,1.9,1.6l0,0
					c0.1,1-0.6,1.8-1.6,1.9l0,0c0,0-0.1,0-0.1,0l0,0C125.8,181.2,125,180.5,124.9,179.6z M112.5,180.4c-1-0.1-1.6-1.1-1.4-2l0,0
					c0.2-1,1.1-1.6,2-1.4l0,0c1,0.2,1.6,1.1,1.4,2l0,0c-0.1,0.9-0.9,1.5-1.7,1.5l0,0C112.6,180.5,112.5,180.5,112.5,180.4z
					 M131.9,178.8c-0.2-0.9,0.4-1.9,1.3-2.1l0,0c0.9-0.2,1.9,0.4,2.1,1.3l0,0c0.2,0.9-0.4,1.9-1.3,2.1l0,0c-0.1,0-0.3,0.1-0.4,0.1
					l0,0C132.8,180.1,132.1,179.6,131.9,178.8z M-70.6,180c-1-0.2-1.6-1.1-1.4-2l0,0c0.2-1,1.1-1.6,2.1-1.4l0,0
					c0.9,0.2,1.6,1.1,1.4,2l0,0c-0.2,0.8-0.9,1.4-1.7,1.4l0,0C-70.4,180-70.5,180-70.6,180z M105.5,179c-0.9-0.2-1.5-1.2-1.3-2.1
					l0,0c0.2-0.9,1.2-1.5,2.1-1.2l0,0c0.9,0.2,1.5,1.2,1.3,2.1l0,0c-0.2,0.8-0.9,1.3-1.7,1.3l0,0C105.8,179,105.6,179,105.5,179z
					 M138.6,176.9c-0.4-0.9,0-1.9,0.9-2.3l0,0c0.9-0.4,1.9,0,2.3,0.9l0,0c0.4,0.9,0,1.9-0.9,2.3l0,0c-0.2,0.1-0.5,0.1-0.7,0.1l0,0
					C139.5,177.9,138.9,177.5,138.6,176.9z M-233.9,177.2c-0.6-0.7-0.6-1.8,0.1-2.5l0,0c0.7-0.6,1.8-0.6,2.5,0.1l0,0l0,0l0,0
					c0.7,0.7,0.6,1.8-0.1,2.5l0,0c-0.3,0.3-0.8,0.5-1.2,0.5l0,0C-233.1,177.7-233.6,177.6-233.9,177.2z M98.6,176.9
					c-0.9-0.3-1.4-1.3-1.1-2.2l0,0c0.3-0.9,1.3-1.4,2.2-1.1l0,0c0.9,0.3,1.4,1.3,1.1,2.2l0,0c-0.2,0.7-0.9,1.2-1.7,1.2l0,0
					C99,177,98.8,177,98.6,176.9z M144.9,173.9c-0.5-0.8-0.3-1.9,0.5-2.4l0,0c0.8-0.5,1.9-0.3,2.4,0.5l0,0c0.5,0.8,0.3,1.9-0.5,2.4
					l0,0c-0.3,0.2-0.6,0.3-0.9,0.3l0,0C145.8,174.7,145.2,174.4,144.9,173.9z M92,174.5c-0.9-0.3-1.3-1.4-1-2.3l0,0
					c0.4-0.9,1.4-1.3,2.3-1l0,0c0.9,0.4,1.3,1.4,1,2.3l0,0c-0.3,0.7-0.9,1.1-1.6,1.1l0,0C92.4,174.6,92.2,174.6,92,174.5z
					 M-69.3,173.1c-1-0.2-1.6-1.1-1.4-2l0,0c0.2-1,1.1-1.6,2-1.4l0,0c0.9,0.2,1.6,1.1,1.4,2l0,0c-0.1,0.9-0.9,1.5-1.7,1.5l0,0
					C-69.1,173.1-69.2,173.1-69.3,173.1z M-238.6,171.9c-0.6-0.7-0.6-1.8,0.1-2.5l0,0c0.7-0.6,1.8-0.6,2.5,0.1l0,0
					c0.6,0.7,0.6,1.8-0.2,2.5l0,0c-0.3,0.3-0.8,0.4-1.2,0.4l0,0C-237.8,172.5-238.3,172.3-238.6,171.9z M85.4,171.8
					c-0.9-0.4-1.3-1.4-0.9-2.3l0,0c0.4-0.9,1.4-1.3,2.3-0.9l0,0c0.9,0.4,1.3,1.4,0.9,2.3l0,0c-0.3,0.7-0.9,1-1.6,1l0,0
					C85.9,171.9,85.7,171.9,85.4,171.8z M150.6,169.8c-0.6-0.7-0.6-1.8,0.2-2.5l0,0c0.7-0.6,1.8-0.6,2.5,0.2l0,0
					c0.6,0.7,0.6,1.8-0.2,2.5l0,0c-0.3,0.3-0.7,0.4-1.1,0.4l0,0C151.5,170.4,151,170.2,150.6,169.8z M79,168.8L79,168.8
					c-0.9-0.4-1.2-1.5-0.8-2.3l0,0c0.4-0.9,1.5-1.2,2.3-0.8l0,0c0.9,0.4,1.2,1.5,0.8,2.3l0,0c-0.3,0.6-0.9,1-1.6,1l0,0
					C79.6,169,79.3,168.9,79,168.8z M-243.2,166.6c-0.6-0.7-0.5-1.8,0.2-2.5l0,0c0.7-0.6,1.8-0.6,2.5,0.2l0,0
					c0.6,0.7,0.6,1.8-0.2,2.5l0,0c-0.3,0.3-0.7,0.4-1.2,0.4l0,0C-242.4,167.3-242.9,167-243.2,166.6z M-68.2,166.2
					c-1-0.1-1.6-1-1.5-2l0,0c0.1-1,1-1.6,2-1.5l0,0c1,0.1,1.6,1,1.5,2l0,0c-0.1,0.9-0.9,1.5-1.7,1.5l0,0
					C-68,166.2-68.1,166.2-68.2,166.2z M72.8,165.6c-0.9-0.5-1.2-1.5-0.7-2.4l0,0c0.4-0.9,1.5-1.2,2.4-0.7l0,0
					c0.9,0.5,1.2,1.5,0.7,2.4l0,0c-0.3,0.6-0.9,0.9-1.5,0.9l0,0C73.3,165.8,73,165.7,72.8,165.6z M155.7,165.1
					c-0.7-0.6-0.8-1.7-0.2-2.5l0,0l0,0l0,0c0.6-0.7,1.8-0.8,2.5-0.2l0,0c0.7,0.6,0.8,1.8,0.2,2.5v0c-0.4,0.4-0.8,0.6-1.3,0.6l0,0
					C156.5,165.5,156.1,165.3,155.7,165.1z M66.6,162.3L66.6,162.3c-0.9-0.5-1.2-1.5-0.7-2.4l0,0c0.5-0.9,1.5-1.2,2.4-0.7l0,0
					c0.8,0.5,1.1,1.5,0.7,2.4l0,0c-0.3,0.6-0.9,0.9-1.5,0.9l0,0C67.1,162.5,66.8,162.4,66.6,162.3z M-247.8,161.3
					c-0.6-0.7-0.5-1.8,0.2-2.5l0,0c0.7-0.6,1.8-0.5,2.5,0.2l0,0c0.6,0.7,0.5,1.9-0.2,2.5l0,0c-0.3,0.3-0.7,0.4-1.1,0.4l0,0
					C-247,161.9-247.5,161.7-247.8,161.3z M160.2,159.7c-0.8-0.6-1-1.7-0.4-2.5l0,0c0.6-0.8,1.6-1,2.4-0.4l0,0
					c0.8,0.6,1,1.7,0.4,2.4l0,0c-0.3,0.5-0.9,0.7-1.4,0.7l0,0C160.9,160,160.5,159.9,160.2,159.7z M-67.2,159.2c-1-0.1-1.6-1-1.5-2
					l0,0c0.1-0.9,1-1.6,2-1.5l0,0c1,0.1,1.6,1,1.5,2l0,0c-0.1,0.9-0.9,1.5-1.7,1.5l0,0C-67,159.2-67.1,159.2-67.2,159.2z
					 M60.4,158.8c-0.8-0.5-1.1-1.5-0.6-2.4l0,0c0.5-0.8,1.5-1.1,2.4-0.7l0,0c0.8,0.5,1.1,1.6,0.6,2.4l0,0c-0.3,0.6-0.9,0.9-1.5,0.9
					l0,0C61,159,60.7,159,60.4,158.8z M-252.3,155.9c-0.6-0.8-0.5-1.9,0.2-2.5l0,0c0.8-0.6,1.9-0.5,2.5,0.2l0,0
					c0.6,0.8,0.5,1.9-0.2,2.5l0,0c-0.3,0.3-0.7,0.4-1.1,0.4l0,0C-251.5,156.5-252,156.3-252.3,155.9z M54.4,155.3L54.4,155.3
					c-0.8-0.5-1.1-1.6-0.6-2.4l0,0c0.5-0.8,1.6-1.1,2.4-0.6l0,0c0.8,0.5,1.1,1.6,0.6,2.4l0,0c-0.3,0.5-0.9,0.8-1.5,0.8l0,0
					C54.9,155.5,54.6,155.4,54.4,155.3z M164.1,153.9c-0.8-0.5-1.1-1.6-0.6-2.4l0,0c0.5-0.8,1.6-1.1,2.4-0.6l0,0
					c0.8,0.5,1.1,1.6,0.6,2.4l0,0c-0.3,0.6-0.9,0.9-1.5,0.9l0,0C164.7,154.1,164.4,154.1,164.1,153.9z M-66.2,152.3
					c-1-0.1-1.6-1-1.5-2l0,0c0.1-1,1-1.6,2-1.5l0,0c1,0.1,1.6,1,1.5,2l0,0c-0.1,0.9-0.9,1.5-1.7,1.5l0,0
					C-66,152.3-66.1,152.3-66.2,152.3z M48.3,151.6c-0.8-0.5-1.1-1.6-0.6-2.4l0,0c0.5-0.8,1.6-1.1,2.4-0.6l0,0
					c0.8,0.5,1.1,1.6,0.6,2.4l0,0c-0.3,0.5-0.9,0.8-1.5,0.8l0,0C48.9,151.9,48.6,151.8,48.3,151.6z M-256.8,150.4L-256.8,150.4
					c-0.6-0.8-0.5-1.9,0.3-2.5l0,0c0.8-0.6,1.9-0.5,2.5,0.3l0,0c0.6,0.8,0.5,1.9-0.3,2.5l0,0c-0.3,0.3-0.7,0.4-1.1,0.4l0,0
					C-255.9,151.1-256.4,150.9-256.8,150.4z M42.4,148c-0.8-0.5-1.1-1.6-0.6-2.4l0,0c0.5-0.8,1.6-1.1,2.4-0.6l0,0
					c0.8,0.5,1.1,1.6,0.6,2.4l0,0c-0.3,0.5-0.9,0.8-1.5,0.8l0,0C43,148.2,42.6,148.2,42.4,148z M167.6,147.8
					c-0.9-0.4-1.2-1.5-0.8-2.3l0,0c0.4-0.9,1.5-1.2,2.4-0.8l0,0c0.9,0.4,1.2,1.5,0.8,2.3l0,0c-0.3,0.6-0.9,1-1.6,1l0,0
					C168.1,148,167.8,147.9,167.6,147.8z M-261.1,145L-261.1,145c-0.6-0.8-0.5-1.9,0.3-2.5l0,0c0.8-0.6,1.9-0.5,2.5,0.3l0,0
					c0.6,0.8,0.5,1.9-0.3,2.5l0,0c-0.3,0.2-0.7,0.4-1.1,0.4l0,0C-260.3,145.6-260.8,145.4-261.1,145z M-65.2,145.3
					c-1-0.1-1.6-1-1.5-2l0,0c0.2-1,1-1.6,2-1.5l0,0c1,0.1,1.6,1,1.5,2l0,0c-0.1,0.9-0.9,1.5-1.7,1.5l0,0
					C-65,145.4-65.1,145.3-65.2,145.3z M36.4,144.3c-0.8-0.5-1.1-1.6-0.6-2.4l0,0c0.5-0.8,1.6-1.1,2.4-0.5l0,0
					c0.8,0.5,1.1,1.6,0.6,2.4l0,0c-0.3,0.5-0.9,0.8-1.5,0.8l0,0C37,144.5,36.7,144.5,36.4,144.3z M170.6,141.5
					c-0.9-0.4-1.3-1.4-0.9-2.3l0,0l0,0l0,0c0.4-0.9,1.4-1.3,2.3-0.9l0,0c0.9,0.4,1.3,1.4,0.9,2.3l0,0c-0.3,0.7-0.9,1.1-1.6,1.1l0,0
					C171.1,141.6,170.8,141.6,170.6,141.5z M30.5,140.5c-0.8-0.5-1.1-1.6-0.5-2.4l0,0c0.5-0.8,1.6-1.1,2.4-0.5l0,0c0,0,0,0,0,0l0,0
					c0.8,0.5,1.1,1.6,0.6,2.4l0,0c-0.3,0.5-0.9,0.8-1.5,0.8l0,0C31.1,140.8,30.8,140.7,30.5,140.5z M-265.5,139.4
					c-0.6-0.8-0.5-1.9,0.3-2.5l0,0c0.8-0.6,1.9-0.4,2.5,0.3l0,0c0.6,0.8,0.5,1.9-0.3,2.5l0,0c-0.3,0.2-0.7,0.4-1.1,0.4l0,0
					C-264.6,140.1-265.1,139.9-265.5,139.4z M-64.1,138.4c-1-0.2-1.6-1.1-1.4-2l0,0l0,0l0,0c0.2-0.9,1.1-1.6,2-1.4l0,0
					c0.9,0.2,1.6,1.1,1.4,2l0,0c-0.1,0.9-0.9,1.4-1.7,1.4l0,0C-63.9,138.4-64,138.4-64.1,138.4z M24.6,136.8
					c-0.8-0.5-1.1-1.6-0.5-2.4l0,0c0.5-0.8,1.6-1.1,2.4-0.5l0,0l0,0l0,0c0.8,0.5,1.1,1.6,0.6,2.4l0,0c-0.3,0.5-0.9,0.8-1.5,0.8l0,0
					C25.2,137.1,24.8,137,24.6,136.8z M173.3,135c-0.9-0.3-1.4-1.3-1-2.3l0,0c0.3-0.9,1.4-1.4,2.2-1l0,0c0.9,0.3,1.4,1.4,1,2.3l0,0
					c-0.3,0.7-0.9,1.1-1.6,1.1l0,0C173.7,135.2,173.5,135.1,173.3,135z M-269.8,133.9c-0.6-0.8-0.4-1.9,0.3-2.5l0,0
					c0.8-0.6,1.9-0.4,2.5,0.3l0,0c0.6,0.8,0.4,1.9-0.3,2.5l0,0c-0.3,0.2-0.7,0.4-1.1,0.4l0,0C-268.9,134.5-269.4,134.3-269.8,133.9z
					 M18.6,133.1c-0.8-0.5-1.1-1.6-0.5-2.4l0,0c0.5-0.8,1.6-1.1,2.4-0.6l0,0c0.8,0.5,1.1,1.6,0.5,2.4l0,0c-0.3,0.5-0.9,0.8-1.5,0.8
					l0,0C19.2,133.3,18.9,133.2,18.6,133.1z M-62.8,131.5c-0.9-0.2-1.5-1.1-1.3-2.1l0,0l0,0l0,0c0.2-0.9,1.2-1.5,2.1-1.3l0,0
					c0.9,0.2,1.5,1.1,1.3,2.1v0c-0.2,0.8-0.9,1.4-1.7,1.4l0,0C-62.5,131.6-62.6,131.5-62.8,131.5z M12.7,129.3
					c-0.8-0.5-1.1-1.6-0.5-2.4l0,0c0.5-0.8,1.6-1.1,2.4-0.6l0,0c0.8,0.5,1.1,1.6,0.6,2.4l0,0c-0.3,0.5-0.9,0.8-1.5,0.8l0,0
					C13.3,129.6,13,129.5,12.7,129.3z M-274,128.2c-0.6-0.8-0.4-1.9,0.4-2.4l0,0c0.8-0.6,1.9-0.4,2.5,0.4l0,0
					c0.6,0.8,0.4,1.9-0.4,2.5l0,0c-0.3,0.2-0.7,0.4-1.1,0.4l0,0C-273.1,128.9-273.7,128.7-274,128.2z M175.7,128.5
					c-0.9-0.3-1.4-1.3-1.1-2.2l0,0c0.3-0.9,1.3-1.4,2.2-1.1l0,0c0.9,0.3,1.4,1.3,1.1,2.2l0,0c-0.2,0.7-0.9,1.2-1.7,1.2l0,0
					C176.1,128.6,175.9,128.5,175.7,128.5z M6.8,125.6c-0.8-0.5-1.1-1.6-0.6-2.4l0,0c0.5-0.8,1.6-1.1,2.4-0.6l0,0
					c0.8,0.5,1.1,1.6,0.6,2.4l0,0c-0.3,0.5-0.9,0.8-1.5,0.8l0,0C7.4,125.9,7.1,125.8,6.8,125.6z M-61.1,124.7
					c-0.9-0.3-1.4-1.3-1.1-2.2l0,0c0.3-0.9,1.3-1.4,2.2-1.2l0,0c0.9,0.3,1.4,1.3,1.1,2.2l0,0c-0.2,0.8-0.9,1.2-1.7,1.2l0,0
					C-60.8,124.8-60.9,124.8-61.1,124.7z M-278.2,122.6L-278.2,122.6c-0.6-0.8-0.4-1.9,0.4-2.5l0,0c0.8-0.6,1.9-0.4,2.4,0.4l0,0l0,0
					l0,0c0.6,0.8,0.4,1.9-0.4,2.4l0,0c-0.3,0.2-0.7,0.3-1,0.3l0,0C-277.3,123.3-277.8,123.1-278.2,122.6z M0.8,122
					c-0.8-0.5-1.1-1.6-0.6-2.4l0,0c0.5-0.8,1.6-1.1,2.4-0.6l0,0l0,0l0,0c0.8,0.5,1.1,1.6,0.6,2.4l0,0c-0.3,0.5-0.9,0.8-1.5,0.8l0,0
					C1.4,122.2,1.1,122.1,0.8,122z M177.8,121.8c-0.9-0.3-1.5-1.2-1.2-2.2l0,0c0.3-0.9,1.2-1.5,2.2-1.2l0,0c0.9,0.3,1.5,1.2,1.2,2.2
					l0,0c-0.2,0.8-0.9,1.2-1.7,1.2l0,0C178.2,121.9,178,121.9,177.8,121.8z M-5.2,118.3L-5.2,118.3c-0.8-0.5-1.1-1.6-0.6-2.4l0,0
					c0.5-0.8,1.6-1.1,2.4-0.6l0,0c0.8,0.5,1.1,1.6,0.6,2.4l0,0c-0.3,0.5-0.9,0.8-1.5,0.8l0,0C-4.6,118.6-4.9,118.5-5.2,118.3z
					 M-58.9,118.1c-0.9-0.4-1.3-1.4-0.9-2.3l0,0c0.4-0.9,1.4-1.3,2.3-0.9l0,0c0.9,0.4,1.3,1.5,0.9,2.3l0,0c-0.3,0.7-0.9,1-1.6,1l0,0
					C-58.4,118.2-58.6,118.2-58.9,118.1z M-282.3,116.9c-0.6-0.8-0.4-1.9,0.4-2.5l0,0c0.8-0.6,1.9-0.4,2.4,0.4l0,0
					c0.6,0.8,0.4,1.9-0.4,2.4l0,0c-0.3,0.2-0.7,0.3-1,0.3l0,0C-281.4,117.6-282,117.4-282.3,116.9z M179.8,115.1
					c-0.9-0.2-1.5-1.2-1.2-2.1l0,0c0,0,0,0,0,0l0,0c0.2-0.9,1.2-1.5,2.1-1.2l0,0c0.9,0.2,1.5,1.2,1.2,2.1l0,0
					c-0.2,0.8-0.9,1.3-1.7,1.3l0,0C180.1,115.1,179.9,115.1,179.8,115.1z M-11.2,114.8c-0.8-0.5-1.1-1.5-0.6-2.4l0,0
					c0.5-0.8,1.6-1.1,2.4-0.7l0,0c0.8,0.5,1.1,1.6,0.6,2.4l0,0c-0.3,0.6-0.9,0.9-1.5,0.9l0,0C-10.6,115-10.9,114.9-11.2,114.8z
					 M-55.7,111.9c-0.8-0.6-0.9-1.7-0.3-2.5l0,0c0.6-0.8,1.7-0.9,2.5-0.3l0,0c0.8,0.6,0.9,1.7,0.3,2.5l0,0c-0.3,0.4-0.9,0.7-1.4,0.7
					l0,0C-55,112.2-55.4,112.1-55.7,111.9z M-286.4,111.2c-0.6-0.8-0.4-1.9,0.4-2.4l0,0c0.8-0.6,1.9-0.4,2.4,0.4l0,0
					c0.6,0.8,0.4,1.9-0.4,2.4l0,0c-0.3,0.2-0.7,0.3-1,0.3l0,0C-285.5,111.9-286.1,111.7-286.4,111.2z M-17.2,111.5
					c-0.9-0.4-1.2-1.5-0.8-2.4l0,0c0.4-0.9,1.5-1.2,2.3-0.8l0,0l0,0l0,0c0.9,0.4,1.2,1.5,0.8,2.3l0,0c-0.3,0.6-0.9,1-1.6,1l0,0
					C-16.7,111.7-17,111.6-17.2,111.5z M-23.5,108.6L-23.5,108.6c-0.9-0.4-1.3-1.4-0.9-2.3l0,0c0.4-0.9,1.4-1.3,2.3-0.9l0,0l0,0l0,0
					c0.9,0.4,1.3,1.4,0.9,2.3l0,0c-0.3,0.7-0.9,1.1-1.6,1.1l0,0C-23,108.7-23.2,108.7-23.5,108.6z M181.5,108.3
					c-0.9-0.2-1.5-1.2-1.3-2.1l0,0c0.2-0.9,1.2-1.5,2.1-1.3l0,0c0.9,0.2,1.5,1.2,1.3,2.1l0,0c-0.2,0.8-0.9,1.4-1.7,1.4l0,0
					C181.8,108.4,181.7,108.3,181.5,108.3z M-51.1,106.7c-0.5-0.8-0.3-1.9,0.5-2.4l0,0c0.8-0.5,1.9-0.3,2.4,0.5l0,0
					c0.5,0.8,0.3,1.9-0.5,2.4l0,0c-0.3,0.2-0.6,0.3-0.9,0.3l0,0C-50.2,107.5-50.7,107.2-51.1,106.7z M-29.9,106.3L-29.9,106.3
					c-0.9-0.3-1.5-1.2-1.2-2.2l0,0c0.3-0.9,1.2-1.5,2.2-1.2l0,0c0.9,0.3,1.5,1.2,1.2,2.2l0,0c-0.2,0.8-0.9,1.3-1.7,1.3l0,0
					C-29.5,106.4-29.7,106.4-29.9,106.3z M-290.5,105.4L-290.5,105.4c-0.6-0.8-0.4-1.9,0.4-2.4l0,0c0.8-0.6,1.9-0.4,2.4,0.4l0,0
					c0.6,0.8,0.4,1.9-0.4,2.4l0,0c-0.3,0.2-0.7,0.3-1,0.3l0,0C-289.6,106.2-290.1,105.9-290.5,105.4z M-44.9,103.6
					c-0.2-1,0.5-1.9,1.4-2l0,0c0.9-0.2,1.9,0.5,2,1.4l0,0c0.2,0.9-0.5,1.9-1.4,2l0,0c-0.1,0-0.2,0-0.3,0l0,0
					C-44,105.1-44.8,104.5-44.9,103.6z M-36.4,104.9c-1-0.1-1.6-1-1.5-1.9l0,0c0.1-1,1-1.6,1.9-1.5l0,0c1,0.1,1.6,1,1.5,1.9l0,0
					c-0.1,0.9-0.9,1.6-1.7,1.6l0,0C-36.3,105-36.3,104.9-36.4,104.9z M183.1,101.5c-0.9-0.2-1.5-1.1-1.3-2.1l0,0c0,0,0,0,0,0l0,0
					c0.2-0.9,1.1-1.5,2.1-1.3l0,0c0.9,0.2,1.5,1.1,1.3,2.1l0,0c-0.2,0.8-0.9,1.4-1.7,1.4l0,0C183.4,101.5,183.2,101.5,183.1,101.5z
					 M-294.5,99.6c-0.5-0.8-0.3-1.9,0.5-2.4l0,0c0.8-0.5,1.9-0.3,2.4,0.5l0,0c0.6,0.8,0.3,1.9-0.4,2.4l0,0c-0.3,0.2-0.7,0.3-1,0.3
					l0,0C-293.6,100.4-294.1,100.1-294.5,99.6z M184.6,94.6c-1-0.2-1.6-1.1-1.4-2l0,0l0,0l0,0c0.2-1,1.1-1.6,2.1-1.4l0,0
					c0.9,0.2,1.6,1.1,1.4,2l0,0c-0.2,0.8-0.9,1.4-1.7,1.4l0,0C184.8,94.7,184.7,94.7,184.6,94.6z M-298.4,93.8
					c-0.5-0.8-0.3-1.9,0.5-2.4l0,0c0.8-0.5,1.9-0.3,2.4,0.5l0,0c0.5,0.8,0.3,1.9-0.5,2.4l0,0c-0.3,0.2-0.6,0.3-1,0.3l0,0
					C-297.5,94.6-298.1,94.3-298.4,93.8z M-302.3,87.9c-0.5-0.8-0.3-1.9,0.5-2.4l0,0c0.8-0.5,1.9-0.3,2.4,0.5l0,0l0,0l0,0
					c0.5,0.8,0.3,1.9-0.5,2.4l0,0c-0.3,0.2-0.6,0.3-1,0.3l0,0C-301.4,88.7-302,88.4-302.3,87.9z M185.8,87.8c-1-0.2-1.6-1.1-1.4-2
					l0,0c0,0,0,0,0,0l0,0c0.2-1,1.1-1.6,2-1.4l0,0c1,0.2,1.6,1.1,1.4,2l0,0c-0.1,0.9-0.9,1.5-1.7,1.5l0,0
					C186,87.8,185.9,87.8,185.8,87.8z M-306.2,82c-0.5-0.8-0.3-1.9,0.6-2.4l0,0c0.8-0.5,1.9-0.3,2.4,0.6l0,0
					c0.5,0.8,0.3,1.9-0.5,2.4l0,0c-0.3,0.2-0.6,0.3-0.9,0.3l0,0C-305.3,82.8-305.8,82.5-306.2,82z M187,80.9c-1-0.1-1.6-1-1.5-2l0,0
					c0.1-1,1-1.6,2-1.5l0,0c1,0.1,1.6,1,1.5,2l0,0c-0.1,0.9-0.9,1.5-1.7,1.5l0,0C187.1,80.9,187,80.9,187,80.9z M187.9,73.9
					c-1-0.1-1.6-1-1.5-1.9l0,0c0.1-1,1-1.6,1.9-1.5l0,0c1,0.1,1.7,1,1.5,1.9l0,0c-0.1,0.9-0.9,1.5-1.7,1.5l0,0
					C188,73.9,188,73.9,187.9,73.9z M188.7,67c-1-0.1-1.7-0.9-1.6-1.9l0,0c0,0,0,0,0,0l0,0c0.1-1,0.9-1.7,1.9-1.6l0,0
					c1,0.1,1.7,0.9,1.6,1.9l0,0c-0.1,0.9-0.8,1.6-1.7,1.6l0,0C188.8,67,188.7,67,188.7,67z M189.3,60c-1-0.1-1.7-0.9-1.6-1.9l0,0
					c0.1-1,0.9-1.7,1.9-1.6l0,0c1,0.1,1.7,0.9,1.6,1.9l0,0c-0.1,0.9-0.8,1.6-1.7,1.6l0,0C189.3,60,189.3,60,189.3,60z M189.7,53
					c-1,0-1.7-0.9-1.7-1.8l0,0l0,0l0,0c0-1,0.8-1.7,1.8-1.7l0,0c1,0,1.7,0.9,1.7,1.8h0C191.5,52.3,190.7,53,189.7,53L189.7,53
					C189.7,53,189.7,53,189.7,53z M189.9,46c-1,0-1.7-0.8-1.7-1.8l0,0l0,0l0,0c0-1,0.8-1.7,1.8-1.7l0,0c1,0,1.7,0.8,1.7,1.8l0,0
					C191.7,45.2,190.9,46,189.9,46L189.9,46C189.9,46,189.9,46,189.9,46z M188.2,37.3c0-1,0.8-1.8,1.7-1.8l0,0c1,0,1.8,0.8,1.8,1.7
					l0,0c0,1-0.8,1.8-1.7,1.8l0,0c0,0,0,0,0,0l0,0C189,39,188.2,38.2,188.2,37.3z M188.1,30.3L188.1,30.3L188.1,30.3
					c0-1,0.7-1.8,1.7-1.8l0,0c1,0,1.8,0.7,1.8,1.7l0,0c0,1-0.7,1.8-1.7,1.8l0,0c0,0,0,0-0.1,0l0,0C188.9,32,188.1,31.3,188.1,30.3z
					 M187.7,23.4c-0.1-1,0.7-1.8,1.6-1.9l0,0c1-0.1,1.8,0.7,1.8,1.6l0,0c0.1,1-0.7,1.8-1.6,1.8l0,0c0,0-0.1,0-0.1,0l0,0
					C188.6,25,187.8,24.3,187.7,23.4z M187.2,16.4L187.2,16.4L187.2,16.4c-0.1-1,0.6-1.8,1.6-1.9l0,0c1-0.1,1.8,0.6,1.9,1.6l0,0
					c0.1,1-0.6,1.8-1.6,1.9l0,0c-0.1,0-0.1,0-0.2,0l0,0C188.1,18,187.3,17.3,187.2,16.4z M186.6,9.5c-0.1-1,0.6-1.8,1.5-1.9l0,0
					c1-0.1,1.8,0.6,1.9,1.5l0,0c0.1,1-0.6,1.8-1.5,1.9l0,0c-0.1,0-0.1,0-0.2,0l0,0C187.4,11.1,186.7,10.4,186.6,9.5z M185.7,2.6
					c-0.1-1,0.5-1.8,1.5-2l0,0c1-0.1,1.8,0.6,2,1.5l0,0c0.1,1-0.5,1.8-1.5,2l0,0c-0.1,0-0.1,0-0.2,0l0,0
					C186.6,4.1,185.8,3.5,185.7,2.6z M184.7-4.3c-0.1-1,0.5-1.8,1.5-2l0,0c0.9-0.2,1.8,0.5,2,1.5l0,0c0.1,1-0.5,1.9-1.5,2l0,0
					c-0.1,0-0.2,0-0.3,0l0,0C185.6-2.8,184.8-3.4,184.7-4.3z M183.5-11.1c-0.2-0.9,0.5-1.9,1.4-2l0,0c1-0.2,1.9,0.5,2,1.4l0,0
					c0.2,1-0.5,1.9-1.4,2l0,0c-0.1,0-0.2,0-0.3,0l0,0C184.4-9.7,183.7-10.3,183.5-11.1z M182.2-18c-0.2-0.9,0.4-1.9,1.4-2.1l0,0
					c0.9-0.2,1.9,0.4,2.1,1.4l0,0c0.2,0.9-0.4,1.9-1.4,2.1l0,0c-0.1,0-0.2,0-0.4,0l0,0C183.1-16.6,182.4-17.2,182.2-18z M180.7-24.8
					c-0.2-0.9,0.4-1.9,1.3-2.1l0,0c0.9-0.2,1.9,0.4,2.1,1.3l0,0c0.2,0.9-0.4,1.9-1.3,2.1l0,0c-0.1,0-0.3,0-0.4,0l0,0
					C181.6-23.4,180.9-24,180.7-24.8z M179.1-31.5c-0.2-0.9,0.3-1.9,1.3-2.1l0,0c0.9-0.2,1.9,0.3,2.1,1.3l0,0
					c0.2,0.9-0.3,1.9-1.3,2.1l0,0c-0.1,0-0.3,0-0.4,0l0,0C180-30.2,179.3-30.7,179.1-31.5z M177.3-38.3c-0.3-0.9,0.3-1.9,1.2-2.1
					l0,0c0.9-0.3,1.9,0.3,2.2,1.2l0,0c0.3,0.9-0.3,1.9-1.2,2.2l0,0c-0.2,0-0.3,0.1-0.5,0.1l0,0C178.2-37,177.5-37.5,177.3-38.3z
					 M175.3-44.9c-0.3-0.9,0.2-1.9,1.2-2.2l0,0c0.9-0.3,1.9,0.2,2.2,1.2l0,0c0.3,0.9-0.2,1.9-1.2,2.2l0,0c-0.2,0-0.3,0.1-0.5,0.1
					l0,0C176.2-43.7,175.5-44.2,175.3-44.9z M173.2-51.6c-0.3-0.9,0.2-1.9,1.1-2.2l0,0c0.9-0.3,1.9,0.2,2.2,1.1l0,0
					c0.3,0.9-0.2,1.9-1.1,2.2l0,0c-0.2,0.1-0.4,0.1-0.5,0.1l0,0C174.1-50.4,173.4-50.8,173.2-51.6z M170.9-58.2
					C170.9-58.2,170.9-58.2,170.9-58.2L170.9-58.2c-0.3-0.9,0.1-1.9,1.1-2.2l0,0c0.9-0.3,1.9,0.2,2.2,1.1l0,0
					c0.3,0.9-0.2,1.9-1.1,2.2l0,0c-0.2,0.1-0.4,0.1-0.6,0.1l0,0C171.9-57,171.2-57.5,170.9-58.2z M168.5-64.7
					c-0.3-0.9,0.1-1.9,1-2.2l0,0c0.9-0.3,1.9,0.1,2.3,1l0,0c0.3,0.9-0.1,1.9-1,2.2l0,0c-0.2,0.1-0.4,0.1-0.6,0.1l0,0
					C169.5-63.6,168.8-64,168.5-64.7z M166-71.2c-0.4-0.9,0.1-1.9,1-2.3l0,0c0.9-0.4,1.9,0.1,2.3,1l0,0c0.4,0.9-0.1,1.9-1,2.3l0,0
					c-0.2,0.1-0.4,0.1-0.7,0.1l0,0C166.9-70.1,166.3-70.5,166-71.2z M163.3-77.6c-0.4-0.9,0-1.9,0.9-2.3l0,0c0.9-0.4,1.9,0,2.3,0.9
					l0,0c0.4,0.9,0,1.9-0.9,2.3l0,0c-0.2,0.1-0.5,0.1-0.7,0.1l0,0C164.3-76.6,163.6-77,163.3-77.6z M160.5-84
					c-0.4-0.9,0-1.9,0.9-2.3l0,0c0.9-0.4,1.9,0,2.3,0.9l0,0c0.4,0.9,0,1.9-0.9,2.3l0,0c-0.2,0.1-0.5,0.1-0.7,0.1l0,0
					C161.5-83,160.8-83.4,160.5-84z M157.6-90.3L157.6-90.3L157.6-90.3c-0.4-0.9,0-1.9,0.8-2.3l0,0c0.9-0.4,1.9-0.1,2.3,0.8l0,0
					c0.4,0.9,0.1,1.9-0.8,2.3l0,0c-0.2,0.1-0.5,0.2-0.8,0.2l0,0C158.5-89.3,157.9-89.7,157.6-90.3z M154.5-96.6
					c-0.4-0.9-0.1-1.9,0.8-2.4l0,0c0.9-0.4,1.9-0.1,2.3,0.8l0,0c0.4,0.9,0.1,1.9-0.8,2.4l0,0c-0.2,0.1-0.5,0.2-0.8,0.2l0,0
					C155.5-95.6,154.8-96,154.5-96.6z M151.3-102.8c-0.4-0.9-0.1-1.9,0.7-2.4l0,0c0.8-0.4,1.9-0.1,2.4,0.7l0,0
					c0.5,0.9,0.1,1.9-0.7,2.4l0,0c-0.3,0.1-0.5,0.2-0.8,0.2l0,0C152.2-101.8,151.6-102.2,151.3-102.8z M148-108.9
					C148-108.9,148-108.9,148-108.9L148-108.9c-0.5-0.9-0.2-1.9,0.7-2.4l0,0c0.9-0.5,1.9-0.2,2.4,0.7l0,0c0.5,0.9,0.2,1.9-0.7,2.4
					l0,0c-0.3,0.1-0.6,0.2-0.8,0.2l0,0C148.9-108,148.3-108.3,148-108.9z M144.5-115c-0.5-0.8-0.2-1.9,0.6-2.4l0,0
					c0.8-0.5,1.9-0.2,2.4,0.6l0,0c0.5,0.8,0.2,1.9-0.6,2.4l0,0c-0.3,0.2-0.6,0.2-0.9,0.2l0,0C145.5-114.1,144.9-114.4,144.5-115z
					 M141-120.9c-0.5-0.8-0.2-1.9,0.6-2.4l0,0c0.8-0.5,1.9-0.2,2.4,0.6l0,0c0.5,0.8,0.2,1.9-0.6,2.4l0,0c-0.3,0.2-0.6,0.3-0.9,0.3
					l0,0C141.9-120.1,141.3-120.4,141-120.9z M137.3-126.8c-0.5-0.8-0.3-1.9,0.5-2.4l0,0c0.8-0.5,1.9-0.3,2.4,0.5l0,0
					c0.5,0.8,0.3,1.9-0.5,2.4l0,0c-0.3,0.2-0.6,0.3-1,0.3l0,0C138.2-126,137.6-126.3,137.3-126.8z M133.4-132.7L133.4-132.7
					L133.4-132.7c-0.5-0.8-0.3-1.9,0.5-2.4l0,0c0.8-0.5,1.9-0.3,2.4,0.5l0,0c0.5,0.8,0.3,1.9-0.5,2.4l0,0c-0.3,0.2-0.6,0.3-1,0.3
					l0,0C134.3-131.9,133.8-132.2,133.4-132.7z M129.5-138.4c-0.6-0.8-0.4-1.9,0.4-2.4l0,0c0.8-0.6,1.9-0.4,2.4,0.4l0,0
					c0.6,0.8,0.4,1.9-0.4,2.4l0,0c-0.3,0.2-0.7,0.3-1,0.3l0,0C130.3-137.7,129.8-137.9,129.5-138.4z M125.4-144
					c-0.6-0.8-0.4-1.9,0.4-2.4l0,0c0.8-0.6,1.9-0.4,2.4,0.3v0c0.6,0.8,0.4,1.9-0.3,2.4l0,0c-0.3,0.2-0.7,0.4-1.1,0.4l0,0
					C126.2-143.3,125.7-143.6,125.4-144z M121.1-149.5c-0.6-0.8-0.5-1.9,0.3-2.5l0,0c0.8-0.6,1.9-0.5,2.5,0.3l0,0
					c0.6,0.8,0.5,1.9-0.3,2.5l0,0c-0.3,0.2-0.7,0.4-1.1,0.4l0,0C121.9-148.9,121.4-149.1,121.1-149.5z"/>
			</g>
			<g id="Tracé_2119">
				<path class="st1" d="M229.1,368.7c-1,0-1.7-0.8-1.7-1.8l0,0c0-1,0.8-1.7,1.8-1.7l0,0c1,0,1.7,0.8,1.7,1.8l0,0
					C230.8,367.9,230.1,368.7,229.1,368.7L229.1,368.7C229.1,368.7,229.1,368.7,229.1,368.7z M236.2,368.7c-1,0-1.8-0.7-1.8-1.7l0,0
					c0-1,0.7-1.8,1.7-1.8l0,0c1,0,1.8,0.7,1.8,1.7l0,0C237.9,367.9,237.1,368.7,236.2,368.7L236.2,368.7z M222,368.4L222,368.4
					c-1,0-1.7-0.9-1.7-1.8l0,0c0-1,0.9-1.7,1.8-1.7l0,0c1,0.1,1.7,0.9,1.7,1.9l0,0C223.8,367.7,223,368.4,222,368.4L222,368.4
					C222.1,368.4,222.1,368.4,222,368.4z M241.4,366.7c-0.1-1,0.7-1.8,1.6-1.9l0,0l0,0l0,0c1-0.1,1.8,0.7,1.9,1.6l0,0
					c0.1,1-0.7,1.8-1.6,1.9l0,0c0,0-0.1,0-0.1,0l0,0C242.2,368.4,241.4,367.7,241.4,366.7z M215,367.9c-1-0.1-1.7-0.9-1.6-1.9l0,0
					c0.1-1,0.9-1.7,1.9-1.6l0,0l0,0l0,0c1,0.1,1.7,0.9,1.6,1.9l0,0c-0.1,0.9-0.8,1.6-1.7,1.6l0,0C215.1,368,215,368,215,367.9z
					 M248.3,366.2c-0.1-1,0.6-1.8,1.5-1.9l0,0c0,0,0,0,0,0l0,0c1-0.1,1.8,0.6,1.9,1.6l0,0c0.1,1-0.6,1.8-1.5,1.9l0,0
					c-0.1,0-0.1,0-0.2,0l0,0C249.2,367.7,248.4,367.1,248.3,366.2z M208,367.2c-1-0.1-1.6-1-1.5-1.9l0,0c0.1-1,1-1.6,2-1.5l0,0
					c1,0.1,1.6,1,1.5,2l0,0c-0.1,0.9-0.9,1.5-1.7,1.5l0,0C208.1,367.2,208,367.2,208,367.2z M255.3,365.3c-0.2-1,0.5-1.9,1.4-2l0,0
					c1-0.2,1.9,0.5,2,1.4l0,0c0.2,1-0.5,1.9-1.4,2l0,0c-0.1,0-0.2,0-0.3,0l0,0C256.2,366.8,255.4,366.2,255.3,365.3z M201,366.3
					L201,366.3c-0.9-0.1-1.6-1-1.5-2l0,0c0.1-1,1-1.6,2-1.5l0,0c0,0,0,0,0,0l0,0c1,0.1,1.6,1,1.5,2l0,0c-0.1,0.9-0.9,1.5-1.7,1.5
					l0,0C201.2,366.3,201.1,366.3,201,366.3z M262.2,364.1c-0.2-0.9,0.4-1.9,1.3-2.1l0,0l0,0l0,0c0.9-0.2,1.9,0.4,2.1,1.3l0,0
					c0.2,0.9-0.4,1.9-1.3,2.1l0,0c-0.1,0-0.3,0-0.4,0l0,0C263.1,365.4,262.4,364.9,262.2,364.1z M194,365.2c-1-0.2-1.6-1.1-1.4-2
					l0,0c0.2-1,1.1-1.6,2-1.4l0,0l0,0l0,0c1,0.2,1.6,1.1,1.4,2l0,0c-0.2,0.9-0.9,1.5-1.7,1.5l0,0C194.2,365.2,194.1,365.2,194,365.2
					z M187.1,363.9L187.1,363.9c-1-0.2-1.6-1.1-1.4-2.1l0,0c0.2-1,1.1-1.6,2.1-1.4l0,0l0,0l0,0c0.9,0.2,1.6,1.1,1.4,2.1l0,0
					c-0.2,0.8-0.9,1.4-1.7,1.4l0,0C187.3,363.9,187.2,363.9,187.1,363.9z M269,362.4c-0.3-0.9,0.3-1.9,1.2-2.2l0,0
					c0.9-0.3,1.9,0.3,2.2,1.2l0,0c0.3,0.9-0.3,1.9-1.2,2.2l0,0c-0.2,0-0.3,0.1-0.5,0.1l0,0C269.9,363.7,269.2,363.2,269,362.4z
					 M180.2,362.4c-0.9-0.2-1.5-1.2-1.3-2.1l0,0c0.2-0.9,1.1-1.5,2.1-1.3l0,0c0.9,0.2,1.5,1.2,1.3,2.1l0,0c-0.2,0.8-0.9,1.4-1.7,1.4
					l0,0C180.5,362.4,180.3,362.4,180.2,362.4z M275.7,360.4c-0.3-0.9,0.2-1.9,1.1-2.2l0,0l0,0l0,0c0.9-0.3,1.9,0.1,2.2,1.1l0,0
					c0.3,0.9-0.2,1.9-1.1,2.2l0,0c-0.2,0.1-0.4,0.1-0.6,0.1l0,0C276.6,361.6,276,361.1,275.7,360.4z M173.4,360.8
					c-0.9-0.2-1.5-1.2-1.3-2.1l0,0c0.2-0.9,1.2-1.5,2.1-1.3l0,0c0.9,0.2,1.5,1.2,1.3,2.1l0,0c-0.2,0.8-0.9,1.3-1.7,1.3l0,0
					C173.7,360.8,173.5,360.8,173.4,360.8z M166.6,359c-0.9-0.3-1.5-1.2-1.2-2.2l0,0c0.2-0.9,1.2-1.5,2.2-1.2l0,0
					c0.9,0.2,1.5,1.2,1.2,2.1l0,0c-0.2,0.8-0.9,1.3-1.7,1.3l0,0C166.9,359.1,166.7,359,166.6,359z M282.2,357.9
					c-0.4-0.9,0-1.9,0.9-2.3l0,0c0.9-0.4,1.9,0,2.3,0.9l0,0c0.4,0.9,0,1.9-0.9,2.3l0,0c-0.2,0.1-0.5,0.1-0.7,0.1l0,0
					C283.2,359,282.5,358.6,282.2,357.9z M159.8,357.1L159.8,357.1c-0.9-0.3-1.5-1.2-1.2-2.2l0,0c0.3-0.9,1.2-1.5,2.2-1.2l0,0
					c0.9,0.3,1.5,1.2,1.2,2.2l0,0c-0.2,0.8-0.9,1.3-1.7,1.3l0,0C160.1,357.2,159.9,357.1,159.8,357.1z M288.6,355
					c-0.4-0.8-0.1-1.9,0.7-2.4l0,0c0.9-0.5,1.9-0.1,2.4,0.7l0,0c0.4,0.9,0.1,1.9-0.7,2.4l0,0c-0.3,0.1-0.5,0.2-0.8,0.2l0,0
					C289.5,356,288.9,355.6,288.6,355z M153.1,355.1L153.1,355.1c-0.9-0.3-1.4-1.3-1.2-2.2l0,0c0.3-0.9,1.3-1.4,2.2-1.2l0,0l0,0l0,0
					c0.9,0.3,1.4,1.3,1.2,2.2l0,0c-0.2,0.8-0.9,1.2-1.7,1.2l0,0C153.4,355.2,153.2,355.1,153.1,355.1z M146.4,352.9
					c-0.9-0.3-1.4-1.3-1.1-2.2l0,0c0.3-0.9,1.3-1.4,2.2-1.1l0,0c0.9,0.3,1.4,1.3,1.1,2.2l0,0c-0.2,0.7-0.9,1.2-1.7,1.2l0,0
					C146.7,353,146.5,353,146.4,352.9z M-2.5,351.8c-0.5-0.8-0.3-1.9,0.5-2.4l0,0c0.8-0.5,1.9-0.3,2.4,0.5l0,0
					c0.5,0.8,0.3,1.9-0.5,2.4l0,0c-0.3,0.2-0.6,0.3-1,0.3l0,0C-1.7,352.5-2.2,352.3-2.5,351.8z M294.7,351.7
					c-0.5-0.8-0.3-1.9,0.6-2.4l0,0l0,0l0,0c0.8-0.5,1.9-0.3,2.4,0.6l0,0c0.5,0.8,0.3,1.9-0.6,2.4l0,0c-0.3,0.2-0.6,0.3-0.9,0.3l0,0
					C295.6,352.5,295.1,352.2,294.7,351.7z M139.7,350.7c-0.9-0.3-1.4-1.3-1.1-2.2l0,0c0.3-0.9,1.3-1.4,2.2-1.1l0,0
					c0.9,0.3,1.4,1.3,1.1,2.2l0,0c-0.2,0.7-0.9,1.2-1.6,1.2l0,0C140.1,350.8,139.9,350.7,139.7,350.7z M3.4,348.1
					c-0.4-0.9-0.1-1.9,0.8-2.4l0,0c0.9-0.4,1.9-0.1,2.4,0.8l0,0c0.4,0.9,0.1,1.9-0.8,2.4l0,0c-0.3,0.1-0.5,0.2-0.8,0.2l0,0
					C4.4,349.1,3.8,348.7,3.4,348.1z M300.6,347.8c-0.6-0.8-0.4-1.9,0.4-2.5l0,0l0,0l0,0c0.8-0.6,1.9-0.4,2.5,0.4l0,0
					c0.6,0.8,0.4,1.9-0.4,2.4l0,0c-0.3,0.2-0.7,0.3-1,0.3l0,0C301.5,348.6,301,348.3,300.6,347.8z M133.1,348.3L133.1,348.3
					c-0.9-0.3-1.4-1.3-1-2.2l0,0c0.3-0.9,1.3-1.4,2.2-1.1l0,0l0,0l0,0c0.9,0.3,1.4,1.3,1,2.2l0,0c-0.3,0.7-0.9,1.2-1.6,1.2l0,0
					C133.5,348.4,133.3,348.4,133.1,348.3z M9.7,345c-0.4-0.9,0-1.9,0.9-2.3l0,0c0.9-0.4,1.9,0,2.3,0.9l0,0c0.4,0.9,0,1.9-0.9,2.3
					l0,0c-0.2,0.1-0.5,0.1-0.7,0.1l0,0C10.6,346,10,345.6,9.7,345z M126.5,345.9L126.5,345.9c-0.9-0.3-1.4-1.4-1-2.3l0,0
					c0.3-0.9,1.4-1.4,2.3-1l0,0c0.9,0.3,1.3,1.3,1,2.3l0,0c-0.3,0.7-0.9,1.1-1.6,1.1l0,0C126.9,346,126.7,345.9,126.5,345.9z
					 M306.2,343.6c-0.6-0.7-0.6-1.8,0.2-2.5l0,0c0.7-0.6,1.8-0.6,2.5,0.2l0,0c0.6,0.7,0.6,1.8-0.2,2.5l0,0c-0.3,0.3-0.8,0.4-1.2,0.4
					l0,0C307,344.2,306.5,344,306.2,343.6z M120,343.4c-0.9-0.3-1.4-1.3-1-2.2l0,0c0.3-0.9,1.3-1.4,2.2-1l0,0c0.9,0.3,1.4,1.3,1,2.2
					l0,0c-0.3,0.7-0.9,1.2-1.6,1.2l0,0C120.4,343.5,120.2,343.5,120,343.4z M16.1,342.2c-0.3-0.9,0.1-1.9,1-2.2l0,0
					c0.9-0.3,1.9,0.1,2.3,1l0,0c0.4,0.9-0.1,1.9-1,2.3l0,0c-0.2,0.1-0.4,0.1-0.6,0.1l0,0C17.1,343.4,16.4,342.9,16.1,342.2z
					 M113.4,341.2c-0.9-0.3-1.4-1.3-1.1-2.2l0,0c0.3-0.9,1.3-1.4,2.2-1.1l0,0c0.9,0.3,1.4,1.3,1.1,2.2l0,0c-0.2,0.8-0.9,1.2-1.7,1.2
					l0,0C113.8,341.3,113.6,341.2,113.4,341.2z M22.7,339.8c-0.3-0.9,0.2-1.9,1.1-2.2l0,0c0.9-0.3,1.9,0.2,2.2,1.1l0,0
					c0.3,0.9-0.2,1.9-1.1,2.2l0,0c-0.2,0.1-0.4,0.1-0.5,0.1l0,0C23.6,341,23,340.6,22.7,339.8z M311.3,338.9
					c-0.7-0.7-0.8-1.8-0.1-2.5l0,0c0.6-0.7,1.8-0.8,2.5-0.1l0,0c0.7,0.6,0.8,1.8,0.1,2.5l0,0c-0.4,0.4-0.8,0.6-1.3,0.6l0,0
					C312,339.3,311.6,339.2,311.3,338.9z M106.8,339.2c-0.9-0.2-1.5-1.2-1.2-2.1l0,0c0.2-0.9,1.2-1.5,2.1-1.2l0,0
					c0.9,0.2,1.5,1.2,1.2,2.1l0,0c-0.2,0.8-0.9,1.3-1.7,1.3l0,0C107.1,339.3,106.9,339.3,106.8,339.2z M29.4,337.8
					c-0.2-0.9,0.3-1.9,1.2-2.2l0,0l0,0l0,0c0.9-0.2,1.9,0.3,2.1,1.2l0,0c0.3,0.9-0.3,1.9-1.2,2.1l0,0c-0.2,0-0.3,0.1-0.5,0.1l0,0
					C30.3,339.1,29.6,338.5,29.4,337.8z M100,337.6c-0.9-0.2-1.5-1.1-1.3-2.1l0,0c0.2-0.9,1.1-1.5,2.1-1.3l0,0
					c0.9,0.2,1.5,1.1,1.3,2.1l0,0c-0.2,0.8-0.9,1.4-1.7,1.4l0,0C100.3,337.6,100.2,337.6,100,337.6z M36.2,336
					c-0.2-1,0.4-1.9,1.3-2.1l0,0l0,0l0,0c0.9-0.2,1.9,0.4,2.1,1.3l0,0c0.2,0.9-0.4,1.9-1.3,2.1l0,0c-0.1,0-0.2,0-0.4,0l0,0
					C37.1,337.4,36.4,336.8,36.2,336z M93.2,336.3c-1-0.2-1.6-1.1-1.4-2l0,0c0.2-0.9,1.1-1.6,2-1.4l0,0c1,0.2,1.6,1.1,1.4,2l0,0
					c-0.1,0.8-0.9,1.5-1.7,1.5l0,0C93.4,336.3,93.3,336.3,93.2,336.3z M43.1,334.6c-0.2-1,0.5-1.9,1.4-2l0,0c0.9-0.2,1.8,0.5,2,1.4
					l0,0c0.2,0.9-0.5,1.9-1.4,2l0,0c-0.1,0-0.2,0-0.3,0l0,0C43.9,336.1,43.2,335.5,43.1,334.6z M86.4,335.2c-1-0.1-1.6-1-1.5-1.9
					l0,0c0.1-1,1-1.6,2-1.5l0,0c1,0.1,1.6,1,1.5,2l0,0c-0.1,0.9-0.9,1.5-1.7,1.5l0,0C86.6,335.3,86.5,335.3,86.4,335.2z M50,333.6
					c-0.1-1,0.6-1.8,1.5-1.9l0,0c1-0.1,1.8,0.6,1.9,1.5l0,0c0.1,1-0.6,1.8-1.5,1.9l0,0c-0.1,0-0.1,0-0.2,0l0,0
					C50.8,335.1,50.1,334.4,50,333.6z M79.5,334.6L79.5,334.6c-1-0.1-1.7-0.9-1.6-1.9l0,0c0.1-1,0.9-1.7,1.9-1.6l0,0
					c1,0.1,1.7,0.9,1.6,1.9l0,0c-0.1,0.9-0.8,1.6-1.7,1.6l0,0C79.6,334.6,79.6,334.6,79.5,334.6z M56.9,332.8
					c-0.1-1,0.7-1.8,1.6-1.9l0,0c1-0.1,1.8,0.7,1.9,1.6l0,0c0.1,1-0.7,1.8-1.6,1.9l0,0c0,0-0.1,0-0.1,0l0,0
					C57.8,334.5,57,333.8,56.9,332.8z M72.6,334.2c-1,0-1.7-0.8-1.7-1.8l0,0c0-1,0.8-1.7,1.8-1.7l0,0c1,0,1.7,0.8,1.7,1.8l0,0
					C74.4,333.4,73.6,334.2,72.6,334.2L72.6,334.2C72.7,334.2,72.6,334.2,72.6,334.2z M63.9,332.4c0-1,0.8-1.8,1.7-1.8l0,0
					c1,0,1.8,0.8,1.8,1.7l0,0c0,1-0.8,1.8-1.7,1.8l0,0c0,0,0,0,0,0l0,0C64.7,334.2,63.9,333.4,63.9,332.4z M315.8,333.5
					c-0.8-0.6-1-1.7-0.4-2.5l0,0c0,0,0,0,0,0l0,0c0.6-0.8,1.7-1,2.4-0.4l0,0c0.8,0.6,0.9,1.7,0.4,2.4l0,0c-0.3,0.5-0.9,0.7-1.4,0.7
					l0,0C316.5,333.9,316.1,333.8,315.8,333.5z M319.8,327.8c-0.8-0.5-1.1-1.6-0.6-2.4l0,0c0.5-0.8,1.6-1.1,2.4-0.6l0,0
					c0.8,0.5,1.1,1.6,0.6,2.4l0,0c-0.3,0.5-0.9,0.9-1.5,0.9l0,0C320.4,328,320.1,328,319.8,327.8z M323.3,321.7
					c-0.9-0.4-1.2-1.5-0.8-2.3l0,0c0.4-0.9,1.5-1.2,2.4-0.8l0,0c0.9,0.4,1.2,1.5,0.8,2.4l0,0c-0.3,0.6-0.9,1-1.6,1l0,0
					C323.8,321.9,323.5,321.9,323.3,321.7z M326.4,315.4c-0.9-0.4-1.3-1.4-0.9-2.3l0,0l0,0l0,0c0.4-0.9,1.4-1.3,2.3-0.9l0,0
					c0.9,0.4,1.3,1.4,0.9,2.3h0c-0.3,0.7-0.9,1-1.6,1l0,0C326.8,315.6,326.6,315.5,326.4,315.4z M329.1,309c-0.9-0.4-1.3-1.4-1-2.3
					l0,0c0.4-0.9,1.4-1.3,2.3-1l0,0c0.9,0.4,1.3,1.4,1,2.3l0,0c-0.3,0.7-0.9,1.1-1.6,1.1l0,0C329.5,309.1,329.3,309.1,329.1,309z
					 M331.6,302.4c-0.9-0.3-1.4-1.3-1.1-2.2l0,0c0.3-0.9,1.3-1.4,2.2-1.1l0,0c0.9,0.3,1.4,1.3,1.1,2.2l0,0c-0.2,0.7-0.9,1.2-1.6,1.2
					l0,0C332,302.5,331.8,302.5,331.6,302.4z M333.8,295.8c-0.9-0.3-1.4-1.3-1.1-2.2l0,0c0.3-0.9,1.3-1.4,2.2-1.1l0,0
					c0.9,0.3,1.4,1.3,1.1,2.2l0,0c-0.2,0.7-0.9,1.2-1.7,1.2l0,0C334.2,295.9,334,295.9,333.8,295.8z M336,289.1
					c-0.9-0.3-1.4-1.3-1.2-2.2l0,0c0.3-0.9,1.3-1.5,2.2-1.2l0,0c0.9,0.3,1.4,1.3,1.2,2.2l0,0c-0.2,0.8-0.9,1.2-1.7,1.2l0,0
					C336.3,289.2,336.1,289.2,336,289.1z M338,282.4c-0.9-0.3-1.5-1.2-1.2-2.2l0,0l0,0l0,0c0.3-0.9,1.2-1.5,2.2-1.2l0,0
					c0.9,0.3,1.5,1.2,1.2,2.2l0,0c-0.2,0.8-0.9,1.2-1.7,1.2l0,0C338.3,282.5,338.2,282.5,338,282.4z M340,275.7
					c-0.9-0.3-1.5-1.2-1.2-2.2l0,0c0.3-0.9,1.2-1.5,2.2-1.2l0,0c0.9,0.3,1.5,1.2,1.2,2.2l0,0c-0.2,0.8-0.9,1.2-1.7,1.2l0,0
					C340.3,275.8,340.2,275.8,340,275.7z M342,269c-0.9-0.3-1.5-1.3-1.2-2.2l0,0c0.3-0.9,1.3-1.4,2.2-1.2l0,0
					c0.9,0.3,1.5,1.2,1.2,2.2l0,0c-0.2,0.8-0.9,1.2-1.7,1.2l0,0C342.3,269.1,342.2,269.1,342,269z M344.1,262.3
					c-0.9-0.3-1.4-1.3-1.1-2.2l0,0c0.3-0.9,1.3-1.4,2.2-1.1l0,0c0.9,0.3,1.4,1.3,1.1,2.2l0,0c-0.2,0.8-0.9,1.2-1.7,1.2l0,0
					C344.4,262.4,344.2,262.4,344.1,262.3z M346.2,255.6c-0.9-0.3-1.4-1.3-1.1-2.2l0,0c0.3-0.9,1.3-1.4,2.2-1.1l0,0
					c0.9,0.3,1.4,1.3,1.1,2.2l0,0c-0.2,0.7-0.9,1.2-1.7,1.2l0,0C346.6,255.7,346.4,255.7,346.2,255.6z M348.5,249
					c-0.9-0.3-1.4-1.3-1-2.2l0,0c0.3-0.9,1.3-1.4,2.2-1l0,0c0.9,0.3,1.4,1.3,1,2.2l0,0c-0.3,0.7-0.9,1.1-1.7,1.1l0,0
					C348.9,249.1,348.7,249.1,348.5,249z M351,242.5c-0.9-0.4-1.3-1.4-0.9-2.3l0,0l0,0l0,0c0.4-0.9,1.4-1.3,2.3-1l0,0
					c0.9,0.4,1.3,1.4,1,2.3l0,0c-0.3,0.7-0.9,1.1-1.6,1.1l0,0C351.4,242.6,351.2,242.6,351,242.5z M353.7,236
					c-0.9-0.4-1.3-1.4-0.9-2.3l0,0l0,0l0,0c0.4-0.9,1.5-1.3,2.3-0.8l0,0c0.9,0.4,1.3,1.5,0.9,2.3h0c-0.3,0.6-0.9,1-1.6,1l0,0
					C354.2,236.2,354,236.1,353.7,236z M356.7,229.7c-0.9-0.5-1.2-1.5-0.7-2.4l0,0l0,0l0,0c0.5-0.8,1.5-1.2,2.4-0.7l0,0
					c0.9,0.5,1.2,1.5,0.7,2.4l0,0c-0.3,0.6-0.9,0.9-1.5,0.9l0,0C357.3,229.9,357,229.9,356.7,229.7z M360.1,223.6
					c-0.8-0.5-1.1-1.6-0.6-2.4l0,0l0,0l0,0c0.5-0.8,1.6-1.1,2.4-0.6l0,0c0.8,0.5,1.1,1.6,0.6,2.4l0,0c-0.3,0.5-0.9,0.8-1.5,0.8l0,0
					C360.7,223.9,360.4,223.8,360.1,223.6z M363.9,217.7c-0.8-0.6-1-1.7-0.4-2.5l0,0c0.6-0.8,1.7-1,2.4-0.4l0,0
					c0.8,0.6,1,1.7,0.4,2.5l0,0c-0.3,0.5-0.9,0.7-1.4,0.7l0,0C364.6,218.1,364.2,218,363.9,217.7z M368.1,212.2
					c-0.7-0.6-0.8-1.7-0.2-2.5l0,0l0,0l0,0c0.6-0.7,1.7-0.8,2.5-0.2l0,0c0.7,0.6,0.8,1.7,0.2,2.5l0,0c-0.4,0.4-0.8,0.6-1.3,0.6l0,0
					C368.9,212.6,368.5,212.5,368.1,212.2z M372.9,207c-0.7-0.7-0.6-1.8,0.1-2.5l0,0l0,0l0,0c0.7-0.7,1.8-0.6,2.5,0.1l0,0
					c0.7,0.7,0.6,1.8-0.1,2.5l0,0c-0.3,0.3-0.8,0.5-1.2,0.5l0,0C373.7,207.6,373.2,207.4,372.9,207z M378.1,202.4
					c-0.6-0.8-0.4-1.9,0.3-2.5l0,0c0.8-0.6,1.9-0.4,2.5,0.3l0,0c0.6,0.8,0.4,1.9-0.3,2.5l0,0c-0.3,0.2-0.7,0.4-1.1,0.4l0,0
					C378.9,203,378.4,202.8,378.1,202.4z M383.7,198.3c-0.5-0.8-0.2-1.9,0.6-2.4l0,0c0.8-0.5,1.9-0.2,2.4,0.6l0,0
					c0.5,0.8,0.2,1.9-0.6,2.4l0,0c-0.3,0.2-0.6,0.2-0.9,0.2l0,0C384.6,199.1,384,198.8,383.7,198.3z M389.8,194.8
					c-0.4-0.9,0-1.9,0.8-2.3l0,0c0.9-0.4,1.9,0,2.3,0.8l0,0c0.4,0.9,0,1.9-0.8,2.3l0,0c-0.2,0.1-0.5,0.2-0.8,0.2l0,0
					C390.7,195.8,390,195.4,389.8,194.8z M396.1,191.9c-0.3-0.9,0.1-1.9,1-2.2l0,0l0,0l0,0c0.9-0.3,1.9,0.1,2.2,1l0,0
					c0.3,0.9-0.1,1.9-1,2.2l0,0c-0.2,0.1-0.4,0.1-0.6,0.1l0,0C397.1,193.1,396.4,192.6,396.1,191.9z"/>
			</g>
			<g id="Tracé_2662">
				<path class="st1" d="M89.9,253.4c-1,0-1.8-0.8-1.8-1.8l0,0c0-1,0.8-1.7,1.8-1.7l0,0c1,0,1.8,0.8,1.7,1.8l0,0
					C91.7,252.6,90.9,253.4,89.9,253.4L89.9,253.4L89.9,253.4z M95.2,251.6c0-1,0.7-1.8,1.7-1.8l0,0c1,0,1.8,0.8,1.8,1.7l0,0
					c0,1-0.8,1.8-1.7,1.8l0,0c0,0,0,0,0,0l0,0C96,253.3,95.2,252.6,95.2,251.6z M81.2,251.5c0-1,0.8-1.7,1.8-1.7l0,0l0,0l0,0
					c1,0,1.7,0.8,1.7,1.8l0,0c0,1-0.8,1.7-1.8,1.7l0,0C81.9,253.3,81.2,252.5,81.2,251.5z M102.2,251.4c0-1,0.7-1.8,1.6-1.8l0,0
					c1,0,1.8,0.7,1.8,1.7l0,0c0,1-0.7,1.8-1.7,1.8l0,0c0,0-0.1,0-0.1,0l0,0C103,253.1,102.2,252.3,102.2,251.4z M75.9,253
					c-1-0.1-1.7-0.9-1.6-1.8l0,0c0-1,0.9-1.7,1.8-1.7l0,0c1,0.1,1.7,0.9,1.7,1.8l0,0c0,0.9-0.8,1.7-1.7,1.7l0,0
					C75.9,253,75.9,253,75.9,253z M109.2,251c-0.1-1,0.6-1.8,1.6-1.9l0,0c1-0.1,1.8,0.6,1.9,1.6l0,0c0.1,1-0.6,1.8-1.6,1.9l0,0
					c0,0-0.1,0-0.1,0l0,0C110,252.6,109.3,251.9,109.2,251z M68.8,252.6L68.8,252.6c-1-0.1-1.7-0.9-1.6-1.9l0,0
					c0.1-1,0.9-1.7,1.9-1.6l0,0l0,0l0,0c1,0.1,1.7,0.9,1.6,1.9l0,0c-0.1,0.9-0.8,1.6-1.7,1.6l0,0C68.9,252.6,68.9,252.6,68.8,252.6z
					 M61.8,252c-1-0.1-1.7-0.9-1.6-1.9l0,0c0.1-1,0.9-1.7,1.9-1.6l0,0l0,0l0,0c1,0.1,1.7,0.9,1.6,1.9l0,0c-0.1,0.9-0.9,1.6-1.8,1.6
					l0,0C61.9,252,61.9,252,61.8,252z M116.2,250.4c-0.1-1,0.6-1.8,1.5-1.9l0,0c1-0.1,1.8,0.6,1.9,1.5l0,0c0.1,1-0.6,1.8-1.5,1.9
					l0,0c-0.1,0-0.1,0-0.2,0l0,0C117,251.9,116.3,251.3,116.2,250.4z M54.8,251.3c-1-0.1-1.6-1-1.5-1.9l0,0c0.1-1,1-1.6,1.9-1.5l0,0
					l0,0l0,0c1,0.1,1.6,1,1.5,1.9l0,0c-0.1,0.9-0.9,1.5-1.7,1.5l0,0C54.9,251.3,54.9,251.3,54.8,251.3z M123.1,249.5
					c-0.1-1,0.5-1.8,1.5-2l0,0l0,0l0,0c1-0.1,1.9,0.5,2,1.5l0,0c0.1,1-0.5,1.9-1.5,2l0,0c-0.1,0-0.2,0-0.3,0l0,0
					C124,251,123.2,250.4,123.1,249.5z M47.8,250.4L47.8,250.4c-0.9-0.1-1.6-1-1.5-2l0,0c0.1-1,1-1.6,2-1.5l0,0l0,0l0,0
					c1,0.1,1.6,1,1.5,2l0,0c-0.1,0.9-0.9,1.5-1.7,1.5l0,0C48,250.4,47.9,250.4,47.8,250.4z M130,248.4c-0.2-1,0.4-1.9,1.4-2.1l0,0
					l0,0l0,0c0.9-0.2,1.9,0.5,2,1.4l0,0c0.2,1-0.4,1.9-1.4,2l0,0c-0.1,0-0.2,0-0.3,0l0,0C130.9,249.8,130.2,249.3,130,248.4z
					 M40.9,249.4L40.9,249.4c-1-0.1-1.6-1-1.5-2l0,0c0.1-1,1-1.6,2-1.5l0,0c1,0.2,1.6,1,1.5,2l0,0c-0.1,0.9-0.9,1.5-1.7,1.5l0,0
					C41,249.4,41,249.4,40.9,249.4z M136.9,247c-0.2-0.9,0.4-1.9,1.3-2.1l0,0c0.9-0.2,1.9,0.4,2.1,1.3l0,0c0.2,0.9-0.4,1.9-1.3,2.1
					l0,0c-0.1,0-0.3,0-0.4,0l0,0C137.8,248.4,137.1,247.8,136.9,247z M33.9,248.3L33.9,248.3c-1-0.2-1.6-1.1-1.4-2l0,0
					c0.2-1,1.1-1.6,2-1.4l0,0c1,0.2,1.6,1.1,1.4,2l0,0c-0.1,0.8-0.9,1.5-1.7,1.5l0,0C34.1,248.3,34,248.3,33.9,248.3z M27,247
					c-1-0.2-1.6-1.1-1.4-2.1l0,0c0.2-0.9,1.1-1.6,2-1.4l0,0c1,0.2,1.6,1.1,1.4,2l0,0c-0.2,0.8-0.9,1.4-1.7,1.4l0,0
					C27.2,247.1,27.1,247.1,27,247z M143.7,245.4c-0.3-0.9,0.3-1.9,1.2-2.2l0,0l0,0l0,0c0.9-0.3,1.9,0.3,2.2,1.2l0,0
					c0.3,0.9-0.3,1.9-1.2,2.2l0,0c-0.2,0-0.3,0.1-0.5,0.1l0,0C144.6,246.6,143.9,246.1,143.7,245.4z M20.1,245.7
					c-0.9-0.2-1.5-1.1-1.4-2.1l0,0c0.2-0.9,1.1-1.5,2.1-1.4l0,0c0,0,0,0,0,0l0,0c1,0.2,1.6,1.1,1.4,2.1l0,0
					c-0.2,0.8-0.9,1.4-1.7,1.4l0,0C20.3,245.7,20.2,245.7,20.1,245.7z M150.4,243.4c-0.3-0.9,0.2-1.9,1.1-2.2l0,0
					c0.9-0.3,1.9,0.2,2.2,1.1l0,0c0.3,0.9-0.2,1.9-1.1,2.2l0,0c-0.2,0.1-0.4,0.1-0.5,0.1l0,0C151.3,244.6,150.6,244.1,150.4,243.4z
					 M13.2,244.2L13.2,244.2c-0.9-0.2-1.5-1.2-1.3-2.1l0,0c0.2-0.9,1.1-1.5,2.1-1.3l0,0l0,0l0,0c0.9,0.2,1.5,1.2,1.3,2.1l0,0
					c-0.2,0.8-0.9,1.4-1.7,1.4l0,0C13.5,244.2,13.3,244.2,13.2,244.2z M6.4,242.5c-0.9-0.2-1.5-1.2-1.3-2.1l0,0
					c0.2-0.9,1.2-1.5,2.1-1.3l0,0c0.9,0.2,1.5,1.2,1.3,2.1l0,0c-0.2,0.8-0.9,1.3-1.7,1.3l0,0C6.6,242.6,6.5,242.6,6.4,242.5z
					 M157,241.1c-0.4-0.9,0.1-1.9,1-2.3l0,0c0.9-0.4,1.9,0.1,2.3,1l0,0c0.4,0.9-0.1,1.9-1,2.3l0,0c-0.2,0.1-0.4,0.1-0.6,0.1l0,0
					C157.9,242.2,157.3,241.8,157,241.1z M-0.5,240.7c-0.9-0.3-1.5-1.2-1.2-2.2l0,0c0.3-0.9,1.2-1.5,2.2-1.2l0,0
					c0.9,0.3,1.5,1.2,1.2,2.2l0,0c-0.2,0.8-0.9,1.3-1.7,1.3l0,0C-0.2,240.8-0.3,240.8-0.5,240.7z M163.5,238.4
					c-0.4-0.9,0-1.9,0.8-2.3l0,0c0.9-0.4,1.9,0,2.3,0.8l0,0c0.4,0.9,0,1.9-0.8,2.3l0,0c-0.2,0.1-0.5,0.2-0.8,0.2l0,0
					C164.4,239.4,163.8,239,163.5,238.4z M169.8,235.3c-0.5-0.8-0.2-1.9,0.7-2.4l0,0l0,0l0,0c0.9-0.5,1.9-0.2,2.4,0.7l0,0
					c0.5,0.9,0.2,1.9-0.7,2.4l0,0c-0.3,0.2-0.6,0.2-0.8,0.2l0,0C170.7,236.2,170.1,235.9,169.8,235.3z M175.9,231.9
					c-0.5-0.8-0.3-1.9,0.5-2.4l0,0c0.8-0.5,1.9-0.3,2.4,0.5l0,0c0.5,0.8,0.3,1.9-0.5,2.4l0,0c-0.3,0.2-0.6,0.3-0.9,0.3l0,0
					C176.8,232.7,176.2,232.4,175.9,231.9z M181.7,228c-0.6-0.8-0.4-1.9,0.4-2.5l0,0l0,0l0,0c0.8-0.6,1.9-0.4,2.4,0.4l0,0
					c0.6,0.8,0.4,1.9-0.4,2.4l0,0c-0.3,0.2-0.7,0.4-1,0.4l0,0C182.6,228.7,182,228.5,181.7,228z M187.2,223.7
					c-0.6-0.7-0.6-1.8,0.2-2.5l0,0c0,0,0,0,0,0l0,0c0.7-0.6,1.8-0.6,2.5,0.2l0,0c0.6,0.7,0.6,1.8-0.2,2.5l0,0
					c-0.3,0.3-0.7,0.4-1.1,0.4l0,0C188,224.3,187.6,224.1,187.2,223.7z M192.4,219c-0.7-0.7-0.7-1.8,0-2.5l0,0
					c0.7-0.7,1.8-0.7,2.5,0l0,0c0.7,0.7,0.7,1.8,0,2.5v0c-0.4,0.4-0.8,0.5-1.2,0.5l0,0C193.2,219.5,192.7,219.4,192.4,219z
					 M192.4,216.5L192.4,216.5L192.4,216.5C192.4,216.5,192.4,216.5,192.4,216.5L192.4,216.5C192.4,216.5,192.4,216.5,192.4,216.5z
					 M197.2,213.9c-0.8-0.6-0.8-1.7-0.2-2.5l0,0l0,0l0,0c0.6-0.7,1.7-0.8,2.5-0.2l0,0c0.8,0.6,0.8,1.7,0.2,2.5l0,0
					c-0.3,0.4-0.8,0.6-1.3,0.6l0,0C197.9,214.3,197.5,214.2,197.2,213.9z M201.6,208.5c-0.8-0.6-0.9-1.7-0.3-2.5l0,0
					c0.6-0.8,1.7-0.9,2.5-0.3l0,0c0.8,0.6,0.9,1.7,0.3,2.5l0,0c-0.3,0.5-0.9,0.7-1.4,0.7l0,0C202.3,208.8,201.9,208.7,201.6,208.5z
					 M205.8,202.9c-0.8-0.6-0.9-1.7-0.3-2.5l0,0c0.6-0.8,1.7-0.9,2.5-0.3l0,0c0.8,0.6,0.9,1.7,0.3,2.5l0,0c-0.4,0.4-0.9,0.7-1.4,0.7
					l0,0C206.5,203.3,206.1,203.2,205.8,202.9z M210.1,197.4c-0.8-0.6-0.9-1.7-0.3-2.5l0,0l0,0l0,0c0.6-0.8,1.7-0.9,2.5-0.3l0,0
					c0.8,0.6,0.9,1.7,0.3,2.5h0c-0.3,0.5-0.9,0.7-1.4,0.7l0,0C210.8,197.7,210.4,197.6,210.1,197.4z M214.3,191.8
					c-0.8-0.6-0.9-1.7-0.3-2.5l0,0l0,0l0,0c0.6-0.8,1.7-0.9,2.5-0.3l0,0c0.8,0.6,0.9,1.7,0.3,2.5l0,0c-0.3,0.5-0.9,0.7-1.4,0.7l0,0
					C215,192.2,214.7,192,214.3,191.8z M218.6,186.2c-0.8-0.6-0.9-1.7-0.3-2.4l0,0l0,0l0,0c0.6-0.8,1.7-0.9,2.5-0.3l0,0
					c0.8,0.6,0.9,1.7,0.3,2.5l0,0c-0.3,0.5-0.9,0.7-1.4,0.7l0,0C219.3,186.6,218.9,186.5,218.6,186.2z M222.9,180.7
					c-0.8-0.6-0.9-1.7-0.3-2.5l0,0c0.6-0.8,1.7-0.9,2.5-0.3l0,0c0.8,0.6,0.9,1.7,0.3,2.5l0,0c-0.4,0.4-0.9,0.7-1.4,0.7l0,0
					C223.6,181.1,223.2,180.9,222.9,180.7z M227.1,175.1c-0.8-0.6-0.9-1.7-0.3-2.4l0,0l0,0l0,0c0.6-0.8,1.7-0.9,2.5-0.3l0,0
					c0.8,0.6,0.9,1.7,0.3,2.5l0,0c-0.3,0.4-0.9,0.7-1.4,0.7l0,0C227.8,175.5,227.5,175.4,227.1,175.1z M231.5,169.6
					c-0.8-0.6-0.9-1.7-0.3-2.5l0,0l0,0l0,0c0.6-0.8,1.7-0.9,2.5-0.3l0,0c0.8,0.6,0.9,1.7,0.3,2.5l0,0c-0.4,0.4-0.9,0.7-1.4,0.7l0,0
					C232.2,170,231.8,169.9,231.5,169.6z M235.8,164.1c-0.8-0.6-0.9-1.7-0.3-2.5l0,0c0.6-0.8,1.7-0.9,2.5-0.3l0,0
					c0.8,0.6,0.9,1.7,0.3,2.5l0,0c-0.3,0.4-0.9,0.7-1.4,0.7l0,0C236.5,164.5,236.1,164.4,235.8,164.1z M240.2,158.7
					c-0.8-0.6-0.9-1.7-0.2-2.5l0,0c0.6-0.8,1.7-0.9,2.5-0.3l0,0c0.8,0.6,0.9,1.7,0.2,2.5h0c-0.3,0.4-0.9,0.6-1.4,0.6l0,0
					C240.9,159.1,240.5,158.9,240.2,158.7z M244.6,153.2c-0.8-0.6-0.8-1.7-0.2-2.5l0,0c0.6-0.7,1.7-0.8,2.5-0.2l0,0
					c0.7,0.6,0.8,1.7,0.2,2.5l0,0c-0.3,0.4-0.8,0.6-1.3,0.6l0,0C245.3,153.6,244.9,153.5,244.6,153.2z M249.1,147.9
					c-0.7-0.6-0.8-1.7-0.2-2.5l0,0c0.6-0.7,1.7-0.8,2.5-0.2l0,0c0.7,0.6,0.8,1.7,0.2,2.5l0,0c-0.3,0.4-0.8,0.6-1.3,0.6l0,0
					C249.8,148.3,249.4,148.1,249.1,147.9z M253.6,142.5c-0.7-0.6-0.8-1.7-0.2-2.5l0,0c0.6-0.7,1.7-0.8,2.5-0.2l0,0
					c0.7,0.6,0.8,1.7,0.2,2.5l0,0c-0.3,0.4-0.8,0.6-1.3,0.6l0,0C254.4,143,254,142.8,253.6,142.5z M258.2,137.3
					c-0.7-0.6-0.8-1.8-0.1-2.5l0,0c0.6-0.7,1.8-0.8,2.5-0.1l0,0c0.7,0.6,0.8,1.8,0.1,2.5l0,0c-0.3,0.4-0.8,0.6-1.3,0.6l0,0
					C259,137.7,258.6,137.6,258.2,137.3z M263,132.1c-0.7-0.7-0.8-1.8-0.1-2.5l0,0c0,0,0,0,0,0l0,0c0.7-0.7,1.8-0.8,2.5-0.1l0,0
					c0.7,0.7,0.7,1.8,0.1,2.5l0,0c-0.3,0.4-0.8,0.6-1.3,0.6l0,0C263.7,132.6,263.3,132.4,263,132.1z M267.8,127
					c-0.7-0.7-0.7-1.8,0-2.5l0,0c0.7-0.7,1.8-0.7,2.5,0l0,0c0.7,0.7,0.7,1.8,0,2.5l0,0c-0.3,0.4-0.8,0.5-1.2,0.5l0,0
					C268.6,127.5,268.1,127.4,267.8,127z M272.7,122c-0.7-0.7-0.7-1.8,0-2.5l0,0c0,0,0,0,0,0l0,0c0.7-0.7,1.8-0.7,2.5,0l0,0
					c0.7,0.7,0.7,1.8,0,2.5l0,0c-0.3,0.3-0.8,0.5-1.2,0.5l0,0C273.5,122.6,273,122.4,272.7,122z M277.8,117.2
					c-0.7-0.7-0.6-1.8,0.1-2.5l0,0l0,0l0,0c0.7-0.7,1.8-0.6,2.5,0.1l0,0c0.7,0.7,0.6,1.8-0.1,2.5l0,0c-0.3,0.3-0.8,0.5-1.2,0.5l0,0
					C278.6,117.8,278.1,117.6,277.8,117.2z M282.9,112.5c-0.6-0.7-0.6-1.8,0.2-2.5l0,0c0,0,0,0,0,0l0,0c0.7-0.6,1.8-0.6,2.5,0.2l0,0
					c0.6,0.7,0.6,1.8-0.2,2.5l0,0c-0.3,0.3-0.7,0.4-1.1,0.4l0,0C283.8,113.1,283.3,112.9,282.9,112.5z M288.3,108
					c-0.6-0.8-0.5-1.9,0.3-2.5l0,0l0,0l0,0c0.8-0.6,1.9-0.5,2.5,0.3l0,0c0.6,0.8,0.5,1.9-0.3,2.5l0,0c-0.3,0.3-0.7,0.4-1.1,0.4l0,0
					C289.1,108.6,288.6,108.4,288.3,108z M293.8,103.6c-0.6-0.8-0.4-1.9,0.4-2.5l0,0c0.8-0.6,1.9-0.4,2.5,0.4l0,0
					c0.6,0.8,0.4,1.9-0.4,2.5l0,0c-0.3,0.2-0.7,0.4-1.1,0.4l0,0C294.6,104.3,294.1,104.1,293.8,103.6z M299.4,99.5
					c-0.6-0.8-0.3-1.9,0.5-2.4l0,0c0.8-0.6,1.9-0.3,2.4,0.5l0,0c0.5,0.8,0.3,1.9-0.5,2.4l0,0c-0.3,0.2-0.7,0.3-1,0.3l0,0
					C300.3,100.3,299.7,100,299.4,99.5z M305.2,95.6c-0.5-0.8-0.2-1.9,0.6-2.4l0,0c0.8-0.5,1.9-0.2,2.4,0.6l0,0
					c0.5,0.8,0.2,1.9-0.6,2.4l0,0c-0.3,0.2-0.6,0.3-0.9,0.3l0,0C306.1,96.5,305.6,96.2,305.2,95.6z M311.3,92.1
					c-0.5-0.9-0.1-1.9,0.7-2.4l0,0c0.8-0.5,1.9-0.1,2.4,0.7l0,0c0.5,0.8,0.1,1.9-0.7,2.4l0,0c-0.3,0.1-0.5,0.2-0.8,0.2l0,0
					C312.2,93,311.6,92.7,311.3,92.1z M317.5,88.8c-0.4-0.9,0-1.9,0.8-2.3l0,0c0.9-0.4,1.9,0,2.3,0.8l0,0c0.4,0.9,0,1.9-0.8,2.3l0,0
					c-0.2,0.1-0.5,0.2-0.7,0.2l0,0C318.4,89.9,317.8,89.5,317.5,88.8z M323.8,86c-0.3-0.9,0.1-1.9,1-2.3l0,0c0.9-0.4,1.9,0.1,2.3,1
					l0,0c0.4,0.9-0.1,1.9-1,2.3l0,0c-0.2,0.1-0.4,0.1-0.6,0.1l0,0C324.8,87.1,324.1,86.7,323.8,86z M330.4,83.5
					c-0.3-0.9,0.2-1.9,1.1-2.2l0,0c0.9-0.3,1.9,0.2,2.2,1.1l0,0c0.3,0.9-0.2,1.9-1.1,2.2l0,0c-0.2,0.1-0.4,0.1-0.5,0.1l0,0
					C331.3,84.7,330.6,84.3,330.4,83.5z M337.1,81.5c-0.2-0.9,0.3-1.9,1.3-2.1l0,0c0.9-0.2,1.9,0.3,2.1,1.3l0,0
					c0.2,0.9-0.3,1.9-1.3,2.1l0,0c-0.1,0-0.3,0-0.4,0l0,0C338,82.8,337.3,82.3,337.1,81.5z M343.9,79.9c-0.2-1,0.5-1.9,1.4-2l0,0
					c1-0.2,1.9,0.5,2,1.4l0,0c0.2,1-0.5,1.9-1.4,2l0,0c-0.1,0-0.2,0-0.3,0l0,0C344.8,81.4,344,80.8,343.9,79.9z M350.8,78.9
					c-0.1-1,0.6-1.8,1.6-1.9l0,0c1-0.1,1.8,0.6,1.9,1.6l0,0c0.1,1-0.6,1.8-1.6,1.9l0,0c-0.1,0-0.1,0-0.2,0l0,0
					C351.7,80.4,350.9,79.8,350.8,78.9z M373.3,80.4L373.3,80.4c-1-0.1-1.7-0.9-1.6-1.9l0,0c0.1-1,0.9-1.7,1.9-1.6l0,0
					c1,0.1,1.7,0.9,1.6,1.9l0,0c-0.1,0.9-0.9,1.6-1.7,1.6l0,0C373.5,80.4,373.4,80.4,373.3,80.4z M357.8,78.3c0-1,0.7-1.8,1.7-1.8
					l0,0c1,0,1.8,0.7,1.8,1.7l0,0c0,1-0.7,1.8-1.7,1.8l0,0c0,0,0,0-0.1,0l0,0C358.6,79.9,357.8,79.2,357.8,78.3z M366.5,79.9
					c-1,0-1.7-0.8-1.7-1.8l0,0c0-1,0.8-1.7,1.8-1.7l0,0c1,0,1.7,0.8,1.7,1.8l0,0C368.2,79.2,367.5,79.9,366.5,79.9L366.5,79.9
					C366.5,79.9,366.5,79.9,366.5,79.9z"/>
			</g>
		</g>
	</g>
</g>
</svg>
