<svg xmlns="http://www.w3.org/2000/svg" xmlns:xlink="http://www.w3.org/1999/xlink" xml:space="preserve" id="Calque_1" x="0" y="0" style="enable-background:new 0 0 375 371" version="1.1" viewBox="0 0 375 371"><defs><path id="SVGID_1_" d="M0 0h375v371H0z"/></defs><clipPath id="SVGID_00000075852589046806680180000009040353648091004080_"><use xlink:href="#SVGID_1_" style="overflow:visible"/></clipPath><g id="Groupe_de_masques_1" style="clip-path:url(#SVGID_00000075852589046806680180000009040353648091004080_)"><g id="Groupe_40206"><path id="Tracé_2096" d="M-130.2 246.3c-1 0-1.7-.8-1.7-1.8s.8-1.7 1.8-1.7 1.7.8 1.7 1.8c-.1.9-.8 1.7-1.8 1.7zm5.3-1.8c-.1-1 .6-1.8 1.6-1.9 1-.1 1.8.6 1.9 1.5.1 1-.6 1.8-1.6 1.9h-.2c-.9 0-1.6-.7-1.7-1.5zm-12.5 1.1c-.9-.2-1.6-1-1.4-2 .1-1 1-1.6 2-1.5 1 .2 1.6 1 1.5 2-.1.9-.9 1.5-1.7 1.5h-.4zm19.4-2.2c-.3-.9.3-1.9 1.2-2.2.9-.2 1.9.3 2.1 1.2.3.9-.3 1.9-1.2 2.2-.1 0-.3.1-.5.1-.7 0-1.4-.5-1.6-1.3zm-26.4.6c-.9-.2-1.5-1.2-1.2-2.1.2-.9 1.2-1.5 2.2-1.2.9.2 1.5 1.2 1.2 2.1-.2.8-.9 1.3-1.7 1.3-.2 0-.3 0-.5-.1zm33.1-2.7c-.4-.9 0-1.9.9-2.3.9-.4 1.9 0 2.3.9.4.9 0 1.9-.9 2.3-.2.1-.5.2-.7.2-.7-.1-1.4-.5-1.6-1.1zm-39.9.6c-.9-.3-1.4-1.3-1-2.2.3-.9 1.3-1.4 2.2-1 .9.3 1.4 1.3 1 2.2-.3.7-.9 1.2-1.6 1.2-.2-.1-.4-.2-.6-.2zm-6.6-2.7c-.9-.4-1.3-1.4-.9-2.3.4-.9 1.4-1.3 2.3-.9.9.4 1.3 1.4.9 2.3-.3.6-.9 1-1.6 1-.2 0-.5 0-.7-.1zm52.7-1c-.5-.8-.2-1.9.6-2.4s1.9-.2 2.4.6.2 1.9-.6 2.4c-.3.2-.6.3-.9.3-.6 0-1.2-.3-1.5-.9zm-59.1-2.2c-.8-.5-1.2-1.5-.7-2.4.5-.9 1.5-1.2 2.4-.7.9.5 1.2 1.5.7 2.4-.3.6-.9.9-1.5.9-.3 0-.6 0-.9-.2zm65-1.6c-.6-.8-.5-1.9.3-2.5.8-.6 1.9-.5 2.5.3.6.8.5 1.9-.3 2.5-.3.3-.7.4-1.1.4-.6 0-1.1-.2-1.4-.7zm-71.2-1.8c-.8-.5-1.1-1.6-.6-2.4.5-.8 1.6-1.1 2.4-.6.8.5 1.1 1.6.6 2.4-.3.5-.9.9-1.5.9l-.9-.3zm76.5-2.7c-.7-.7-.7-1.8 0-2.5s1.8-.7 2.5 0 .7 1.8 0 2.5c-.3.3-.8.5-1.2.5-.5 0-1-.1-1.3-.5zm-82.5-1.1c-.8-.5-1-1.6-.5-2.4.5-.8 1.6-1 2.4-.5.8.5 1 1.6.5 2.4-.3.5-.9.8-1.5.8-.2 0-.6-.1-.9-.3zm87.2-4c-.8-.6-.9-1.7-.3-2.5.6-.8 1.7-.9 2.5-.3.8.6.9 1.7.3 2.5-.3.4-.9.7-1.4.7-.4 0-.7-.2-1.1-.4zm-93 0c-.8-.5-1-1.6-.4-2.4.6-.8 1.7-1 2.4-.4.8.6 1 1.7.4 2.4-.3.5-.9.7-1.4.7-.3 0-.7-.1-1-.3zm-5.7-4.2c-.8-.6-.9-1.7-.3-2.5.6-.8 1.7-.9 2.5-.3.8.6.9 1.7.3 2.5-.3.4-.9.7-1.4.7-.4 0-.8-.1-1.1-.4zm102.9-1.4c-.8-.5-1.1-1.6-.6-2.4.5-.8 1.6-1.1 2.4-.6.8.5 1.1 1.6.6 2.4-.3.5-.9.8-1.5.8-.3 0-.7-.1-.9-.2zm-108.4-2.9c-.7-.6-.9-1.7-.2-2.5.6-.8 1.7-.9 2.5-.3.8.6.9 1.7.2 2.5-.3.4-.8.7-1.4.7-.4-.1-.8-.2-1.1-.4zm111.9-3.2c-.9-.4-1.2-1.5-.8-2.4.4-.9 1.5-1.2 2.4-.8.9.4 1.2 1.5.8 2.4-.3.6-.9 1-1.6 1-.3 0-.5 0-.8-.2zm-117.3-1.4c-.7-.6-.8-1.7-.2-2.5.6-.7 1.7-.8 2.5-.2.7.6.8 1.7.2 2.5-.3.4-.8.6-1.3.6-.5.1-.9-.1-1.2-.4zm-5.3-4.6c-.7-.6-.8-1.8-.1-2.5.6-.7 1.8-.8 2.5-.1.7.6.8 1.8.1 2.5-.4.4-.8.6-1.3.6-.5-.1-.9-.2-1.2-.5zm125.6-.3c-.9-.4-1.3-1.4-1-2.3.4-.9 1.4-1.3 2.3-1 .9.4 1.3 1.4 1 2.3-.3.7-.9 1.1-1.6 1.1-.3 0-.5 0-.7-.1zm-130.8-4.5c-.7-.7-.7-1.8-.1-2.5.7-.7 1.8-.7 2.5-.1.7.7.7 1.8.1 2.5-.3.4-.8.6-1.3.6s-.9-.2-1.2-.5zm133.3-2c-.9-.3-1.4-1.3-1.1-2.2.3-.9 1.3-1.4 2.2-1.1.9.3 1.4 1.3 1.1 2.2-.2.7-.9 1.2-1.7 1.2-.1 0-.3-.1-.5-.1zm-138.4-2.8c-.7-.7-.7-1.8 0-2.5s1.8-.7 2.5 0 .7 1.8 0 2.5c-.4.3-.8.5-1.3.5-.4 0-.9-.2-1.2-.5zm140.5-3.9c-.9-.2-1.5-1.2-1.2-2.1.2-.9 1.2-1.5 2.1-1.2.9.2 1.5 1.2 1.2 2.1-.2.8-.9 1.3-1.7 1.3-.1 0-.2-.1-.4-.1zm-145.5-1.1c-.7-.7-.7-1.8 0-2.5s1.8-.7 2.5 0 .7 1.8 0 2.5c-.4.3-.8.5-1.2.5-.5 0-1-.2-1.3-.5zm-4.9-5c-.7-.7-.6-1.8 0-2.5.7-.7 1.8-.6 2.5 0 .7.7.6 1.8-.1 2.5-.3.3-.8.5-1.2.5-.4 0-.9-.2-1.2-.5zm152.2-.7c-.9-.2-1.5-1.1-1.3-2.1.2-1 1.2-1.5 2.1-1.3.9.2 1.5 1.1 1.3 2.1-.2.8-.9 1.4-1.7 1.4-.2 0-.3-.1-.4-.1zm-157.1-4.4c-.7-.7-.6-1.8.1-2.5s1.8-.6 2.5.1.6 1.8-.1 2.5c-.3.3-.8.5-1.2.5-.5-.1-.9-.3-1.3-.6zm348.8-1.2c-1 0-1.7-.9-1.6-1.8.1-1 .9-1.7 1.9-1.7 1 .1 1.7.9 1.6 1.9-.1.9-.8 1.6-1.8 1.6h-.1zm5.3-1.6c-.1-1 .6-1.8 1.6-1.9 1-.1 1.8.6 1.9 1.6.1 1-.6 1.8-1.6 1.9h-.1c-.9 0-1.7-.7-1.8-1.6zm-12.4.8c-1-.1-1.6-1.1-1.4-2 .2-1 1.1-1.6 2-1.4 1 .2 1.6 1.1 1.4 2-.1.9-.9 1.5-1.7 1.5-.2 0-.3 0-.3-.1zm19.4-1.6c-.2-.9.4-1.9 1.3-2.1.9-.2 1.9.4 2.1 1.3.2.9-.4 1.9-1.3 2.1-.1 0-.3.1-.4.1-.8-.1-1.5-.6-1.7-1.4zM-70.6 180c-1-.2-1.6-1.1-1.4-2 .2-1 1.1-1.6 2.1-1.4.9.2 1.6 1.1 1.4 2-.2.8-.9 1.4-1.7 1.4h-.4zm176.1-1c-.9-.2-1.5-1.2-1.3-2.1.2-.9 1.2-1.5 2.1-1.2.9.2 1.5 1.2 1.3 2.1-.2.8-.9 1.3-1.7 1.3-.1-.1-.3-.1-.4-.1zm33.1-2.1c-.4-.9 0-1.9.9-2.3.9-.4 1.9 0 2.3.9.4.9 0 1.9-.9 2.3-.2.1-.5.1-.7.1-.7 0-1.3-.4-1.6-1zm-372.5.3c-.6-.7-.6-1.8.1-2.5.7-.6 1.8-.6 2.5.1s.6 1.8-.1 2.5c-.3.3-.8.5-1.2.5-.5-.1-1-.2-1.3-.6zm332.5-.3c-.9-.3-1.4-1.3-1.1-2.2.3-.9 1.3-1.4 2.2-1.1.9.3 1.4 1.3 1.1 2.2-.2.7-.9 1.2-1.7 1.2-.1 0-.3 0-.5-.1zm46.3-3c-.5-.8-.3-1.9.5-2.4s1.9-.3 2.4.5.3 1.9-.5 2.4c-.3.2-.6.3-.9.3-.6 0-1.2-.3-1.5-.8zm-52.9.6c-.9-.3-1.3-1.4-1-2.3.4-.9 1.4-1.3 2.3-1 .9.4 1.3 1.4 1 2.3-.3.7-.9 1.1-1.6 1.1-.3 0-.5 0-.7-.1zm-161.3-1.4c-1-.2-1.6-1.1-1.4-2 .2-1 1.1-1.6 2-1.4.9.2 1.6 1.1 1.4 2-.1.9-.9 1.5-1.7 1.5-.1-.1-.2-.1-.3-.1zm-169.3-1.2c-.6-.7-.6-1.8.1-2.5.7-.6 1.8-.6 2.5.1.6.7.6 1.8-.2 2.5-.3.3-.8.4-1.2.4-.4.1-.9-.1-1.2-.5zm324-.1c-.9-.4-1.3-1.4-.9-2.3.4-.9 1.4-1.3 2.3-.9.9.4 1.3 1.4.9 2.3-.3.7-.9 1-1.6 1-.2 0-.4 0-.7-.1zm65.2-2c-.6-.7-.6-1.8.2-2.5.7-.6 1.8-.6 2.5.2.6.7.6 1.8-.2 2.5-.3.3-.7.4-1.1.4-.5 0-1-.2-1.4-.6zm-71.6-1c-.9-.4-1.2-1.5-.8-2.3.4-.9 1.5-1.2 2.3-.8.9.4 1.2 1.5.8 2.3-.3.6-.9 1-1.6 1-.1 0-.4-.1-.7-.2zm-322.2-2.2c-.6-.7-.5-1.8.2-2.5.7-.6 1.8-.6 2.5.2.6.7.6 1.8-.2 2.5-.3.3-.7.4-1.2.4-.5.1-1-.2-1.3-.6zm175-.4c-1-.1-1.6-1-1.5-2 .1-1 1-1.6 2-1.5 1 .1 1.6 1 1.5 2-.1.9-.9 1.5-1.7 1.5h-.3zm141-.6c-.9-.5-1.2-1.5-.7-2.4.4-.9 1.5-1.2 2.4-.7.9.5 1.2 1.5.7 2.4-.3.6-.9.9-1.5.9-.4 0-.7-.1-.9-.2zm82.9-.5c-.7-.6-.8-1.7-.2-2.5.6-.7 1.8-.8 2.5-.2.7.6.8 1.8.2 2.5-.4.4-.8.6-1.3.6-.4 0-.8-.2-1.2-.4zm-89.1-2.8c-.9-.5-1.2-1.5-.7-2.4.5-.9 1.5-1.2 2.4-.7.8.5 1.1 1.5.7 2.4-.3.6-.9.9-1.5.9-.4 0-.7-.1-.9-.2zm-314.4-1c-.6-.7-.5-1.8.2-2.5.7-.6 1.8-.5 2.5.2.6.7.5 1.9-.2 2.5-.3.3-.7.4-1.1.4-.6 0-1.1-.2-1.4-.6zm408-1.6c-.8-.6-1-1.7-.4-2.5s1.6-1 2.4-.4c.8.6 1 1.7.4 2.4-.3.5-.9.7-1.4.7-.3.1-.7 0-1-.2zm-227.4-.5c-1-.1-1.6-1-1.5-2 .1-.9 1-1.6 2-1.5 1 .1 1.6 1 1.5 2-.1.9-.9 1.5-1.7 1.5h-.3zm127.6-.4c-.8-.5-1.1-1.5-.6-2.4.5-.8 1.5-1.1 2.4-.7.8.5 1.1 1.6.6 2.4-.3.6-.9.9-1.5.9-.3 0-.6 0-.9-.2zm-312.7-2.9c-.6-.8-.5-1.9.2-2.5.8-.6 1.9-.5 2.5.2.6.8.5 1.9-.2 2.5-.3.3-.7.4-1.1.4-.6 0-1.1-.2-1.4-.6zm306.7-.6c-.8-.5-1.1-1.6-.6-2.4.5-.8 1.6-1.1 2.4-.6.8.5 1.1 1.6.6 2.4-.3.5-.9.8-1.5.8-.4 0-.7-.1-.9-.2zm109.7-1.4c-.8-.5-1.1-1.6-.6-2.4.5-.8 1.6-1.1 2.4-.6.8.5 1.1 1.6.6 2.4-.3.6-.9.9-1.5.9-.3-.1-.6-.1-.9-.3zm-230.3-1.6c-1-.1-1.6-1-1.5-2 .1-1 1-1.6 2-1.5 1 .1 1.6 1 1.5 2-.1.9-.9 1.5-1.7 1.5h-.3zm114.5-.7c-.8-.5-1.1-1.6-.6-2.4.5-.8 1.6-1.1 2.4-.6.8.5 1.1 1.6.6 2.4-.3.5-.9.8-1.5.8-.3.1-.6 0-.9-.2zm-305.1-1.2c-.6-.8-.5-1.9.3-2.5.8-.6 1.9-.5 2.5.3.6.8.5 1.9-.3 2.5-.3.3-.7.4-1.1.4-.5 0-1-.2-1.4-.7zM42.4 148c-.8-.5-1.1-1.6-.6-2.4.5-.8 1.6-1.1 2.4-.6.8.5 1.1 1.6.6 2.4-.3.5-.9.8-1.5.8-.3 0-.7 0-.9-.2zm125.2-.2c-.9-.4-1.2-1.5-.8-2.3.4-.9 1.5-1.2 2.4-.8.9.4 1.2 1.5.8 2.3-.3.6-.9 1-1.6 1-.3 0-.6-.1-.8-.2zm-428.7-2.8c-.6-.8-.5-1.9.3-2.5.8-.6 1.9-.5 2.5.3.6.8.5 1.9-.3 2.5-.3.2-.7.4-1.1.4-.6-.1-1.1-.3-1.4-.7zm195.9.3c-1-.1-1.6-1-1.5-2 .2-1 1-1.6 2-1.5 1 .1 1.6 1 1.5 2-.1.9-.9 1.5-1.7 1.5-.1.1-.2 0-.3 0zm101.6-1c-.8-.5-1.1-1.6-.6-2.4.5-.8 1.6-1.1 2.4-.5.8.5 1.1 1.6.6 2.4-.3.5-.9.8-1.5.8-.3-.1-.6-.1-.9-.3zm134.2-2.8c-.9-.4-1.3-1.4-.9-2.3.4-.9 1.4-1.3 2.3-.9.9.4 1.3 1.4.9 2.3-.3.7-.9 1.1-1.6 1.1-.2-.1-.5-.1-.7-.2zm-140.1-1c-.8-.5-1.1-1.6-.5-2.4.5-.8 1.6-1.1 2.4-.5.8.5 1.1 1.6.6 2.4-.3.5-.9.8-1.5.8-.4 0-.7-.1-1-.3zm-296-1.1c-.6-.8-.5-1.9.3-2.5.8-.6 1.9-.4 2.5.3.6.8.5 1.9-.3 2.5-.3.2-.7.4-1.1.4-.5 0-1-.2-1.4-.7zm201.4-1c-1-.2-1.6-1.1-1.4-2 .2-.9 1.1-1.6 2-1.4.9.2 1.6 1.1 1.4 2-.1.9-.9 1.4-1.7 1.4h-.3zm88.7-1.6c-.8-.5-1.1-1.6-.5-2.4.5-.8 1.6-1.1 2.4-.5.8.5 1.1 1.6.6 2.4-.3.5-.9.8-1.5.8-.4 0-.8-.1-1-.3zm148.7-1.8c-.9-.3-1.4-1.3-1-2.3.3-.9 1.4-1.4 2.2-1 .9.3 1.4 1.4 1 2.3-.3.7-.9 1.1-1.6 1.1-.2.1-.4 0-.6-.1zm-443.1-1.1c-.6-.8-.4-1.9.3-2.5.8-.6 1.9-.4 2.5.3.6.8.4 1.9-.3 2.5-.3.2-.7.4-1.1.4-.5-.1-1-.3-1.4-.7zm288.4-.8c-.8-.5-1.1-1.6-.5-2.4.5-.8 1.6-1.1 2.4-.6.8.5 1.1 1.6.5 2.4-.3.5-.9.8-1.5.8-.3 0-.6-.1-.9-.2zm-81.4-1.6c-.9-.2-1.5-1.1-1.3-2.1.2-.9 1.2-1.5 2.1-1.3.9.2 1.5 1.1 1.3 2.1-.2.8-.9 1.4-1.7 1.4-.1 0-.2-.1-.4-.1zm75.5-2.2c-.8-.5-1.1-1.6-.5-2.4.5-.8 1.6-1.1 2.4-.6.8.5 1.1 1.6.6 2.4-.3.5-.9.8-1.5.8-.4.1-.7 0-1-.2zm-286.7-1.1c-.6-.8-.4-1.9.4-2.4.8-.6 1.9-.4 2.5.4.6.8.4 1.9-.4 2.5-.3.2-.7.4-1.1.4-.5-.2-1.1-.4-1.4-.9zm449.7.3c-.9-.3-1.4-1.3-1.1-2.2.3-.9 1.3-1.4 2.2-1.1.9.3 1.4 1.3 1.1 2.2-.2.7-.9 1.2-1.7 1.2-.1 0-.3-.1-.5-.1zM6.8 125.6c-.8-.5-1.1-1.6-.6-2.4.5-.8 1.6-1.1 2.4-.6.8.5 1.1 1.6.6 2.4-.3.5-.9.8-1.5.8-.3.1-.6 0-.9-.2zm-67.9-.9c-.9-.3-1.4-1.3-1.1-2.2.3-.9 1.3-1.4 2.2-1.2.9.3 1.4 1.3 1.1 2.2-.2.8-.9 1.2-1.7 1.2-.2.1-.3.1-.5 0zm-217.1-2.1c-.6-.8-.4-1.9.4-2.5.8-.6 1.9-.4 2.4.4.6.8.4 1.9-.4 2.4-.3.2-.7.3-1 .3-.5.1-1-.1-1.4-.6zm279-.6c-.8-.5-1.1-1.6-.6-2.4.5-.8 1.6-1.1 2.4-.6.8.5 1.1 1.6.6 2.4-.3.5-.9.8-1.5.8-.3 0-.6-.1-.9-.2zm177-.2c-.9-.3-1.5-1.2-1.2-2.2.3-.9 1.2-1.5 2.2-1.2.9.3 1.5 1.2 1.2 2.2-.2.8-.9 1.2-1.7 1.2-.1.1-.3.1-.5 0zm-183-3.5c-.8-.5-1.1-1.6-.6-2.4.5-.8 1.6-1.1 2.4-.6.8.5 1.1 1.6.6 2.4-.3.5-.9.8-1.5.8-.3.1-.6 0-.9-.2zm-53.7-.2c-.9-.4-1.3-1.4-.9-2.3.4-.9 1.4-1.3 2.3-.9.9.4 1.3 1.5.9 2.3-.3.7-.9 1-1.6 1-.2 0-.4 0-.7-.1zm-223.4-1.2c-.6-.8-.4-1.9.4-2.5.8-.6 1.9-.4 2.4.4.6.8.4 1.9-.4 2.4-.3.2-.7.3-1 .3-.5.1-1.1-.1-1.4-.6zm462.1-1.8c-.9-.2-1.5-1.2-1.2-2.1.2-.9 1.2-1.5 2.1-1.2.9.2 1.5 1.2 1.2 2.1-.2.8-.9 1.3-1.7 1.3-.1-.1-.3-.1-.4-.1zm-191-.3c-.8-.5-1.1-1.5-.6-2.4.5-.8 1.6-1.1 2.4-.7.8.5 1.1 1.6.6 2.4-.3.6-.9.9-1.5.9-.3 0-.6-.1-.9-.2zm-44.5-2.9c-.8-.6-.9-1.7-.3-2.5.6-.8 1.7-.9 2.5-.3.8.6.9 1.7.3 2.5-.3.4-.9.7-1.4.7-.4-.1-.8-.2-1.1-.4zm-230.7-.7c-.6-.8-.4-1.9.4-2.4.8-.6 1.9-.4 2.4.4.6.8.4 1.9-.4 2.4-.3.2-.7.3-1 .3-.5 0-1.1-.2-1.4-.7zm269.2.3c-.9-.4-1.2-1.5-.8-2.4.4-.9 1.5-1.2 2.3-.8.9.4 1.2 1.5.8 2.3-.3.6-.9 1-1.6 1-.2.1-.5 0-.7-.1zm-6.3-2.9c-.9-.4-1.3-1.4-.9-2.3.4-.9 1.4-1.3 2.3-.9.9.4 1.3 1.4.9 2.3-.3.7-.9 1.1-1.6 1.1-.2-.1-.4-.1-.7-.2zm205-.3c-.9-.2-1.5-1.2-1.3-2.1.2-.9 1.2-1.5 2.1-1.3.9.2 1.5 1.2 1.3 2.1-.2.8-.9 1.4-1.7 1.4-.1 0-.2-.1-.4-.1zm-232.6-1.6c-.5-.8-.3-1.9.5-2.4s1.9-.3 2.4.5.3 1.9-.5 2.4c-.3.2-.6.3-.9.3-.6 0-1.1-.3-1.5-.8zm21.2-.4c-.9-.3-1.5-1.2-1.2-2.2.3-.9 1.2-1.5 2.2-1.2.9.3 1.5 1.2 1.2 2.2-.2.8-.9 1.3-1.7 1.3-.1 0-.3 0-.5-.1zm-260.6-.9c-.6-.8-.4-1.9.4-2.4.8-.6 1.9-.4 2.4.4.6.8.4 1.9-.4 2.4-.3.2-.7.3-1 .3-.5.1-1-.2-1.4-.7zm245.6-1.8c-.2-1 .5-1.9 1.4-2 .9-.2 1.9.5 2 1.4.2.9-.5 1.9-1.4 2h-.3c-.8.1-1.6-.5-1.7-1.4zm8.5 1.3c-1-.1-1.6-1-1.5-1.9.1-1 1-1.6 1.9-1.5 1 .1 1.6 1 1.5 1.9-.1.9-.9 1.6-1.7 1.6-.1 0-.1-.1-.2-.1zm219.5-3.4c-.9-.2-1.5-1.1-1.3-2.1.2-.9 1.1-1.5 2.1-1.3.9.2 1.5 1.1 1.3 2.1-.2.8-.9 1.4-1.7 1.4-.1-.1-.3-.1-.4-.1zm-477.6-1.9c-.5-.8-.3-1.9.5-2.4s1.9-.3 2.4.5c.6.8.3 1.9-.4 2.4-.3.2-.7.3-1 .3-.6 0-1.1-.3-1.5-.8zm479.1-5c-1-.2-1.6-1.1-1.4-2 .2-1 1.1-1.6 2.1-1.4.9.2 1.6 1.1 1.4 2-.2.8-.9 1.4-1.7 1.4-.2.1-.3.1-.4 0zm-483-.8c-.5-.8-.3-1.9.5-2.4s1.9-.3 2.4.5.3 1.9-.5 2.4c-.3.2-.6.3-1 .3-.5 0-1.1-.3-1.4-.8zm-3.9-5.9c-.5-.8-.3-1.9.5-2.4s1.9-.3 2.4.5.3 1.9-.5 2.4c-.3.2-.6.3-1 .3-.5 0-1.1-.3-1.4-.8zm488.1-.1c-1-.2-1.6-1.1-1.4-2 .2-1 1.1-1.6 2-1.4 1 .2 1.6 1.1 1.4 2-.1.9-.9 1.5-1.7 1.5-.1-.1-.2-.1-.3-.1zm-492-5.8c-.5-.8-.3-1.9.6-2.4.8-.5 1.9-.3 2.4.6.5.8.3 1.9-.5 2.4-.3.2-.6.3-.9.3-.7-.1-1.2-.4-1.6-.9zM187 80.9c-1-.1-1.6-1-1.5-2 .1-1 1-1.6 2-1.5 1 .1 1.6 1 1.5 2-.1.9-.9 1.5-1.7 1.5h-.3zm.9-7c-1-.1-1.6-1-1.5-1.9.1-1 1-1.6 1.9-1.5 1 .1 1.7 1 1.5 1.9-.1.9-.9 1.5-1.7 1.5h-.2zm.8-6.9c-1-.1-1.7-.9-1.6-1.9.1-1 .9-1.7 1.9-1.6 1 .1 1.7.9 1.6 1.9-.1.9-.8 1.6-1.7 1.6h-.2zm.6-7c-1-.1-1.7-.9-1.6-1.9.1-1 .9-1.7 1.9-1.6 1 .1 1.7.9 1.6 1.9-.1.9-.8 1.6-1.7 1.6h-.2zm.4-7c-1 0-1.7-.9-1.7-1.8 0-1 .8-1.7 1.8-1.7s1.7.9 1.7 1.8c0 1-.8 1.7-1.8 1.7zm.2-7c-1 0-1.7-.8-1.7-1.8s.8-1.7 1.8-1.7 1.7.8 1.7 1.8c0 .9-.8 1.7-1.8 1.7zm-1.7-8.7c0-1 .8-1.8 1.7-1.8 1 0 1.8.8 1.8 1.7 0 1-.8 1.8-1.7 1.8-1 0-1.8-.8-1.8-1.7zm-.1-7c0-1 .7-1.8 1.7-1.8s1.8.7 1.8 1.7-.7 1.8-1.7 1.8h-.1c-.9 0-1.7-.7-1.7-1.7zm-.4-6.9c-.1-1 .7-1.8 1.6-1.9 1-.1 1.8.7 1.8 1.6.1 1-.7 1.8-1.6 1.8h-.1c-.8.1-1.6-.6-1.7-1.5zm-.5-7c-.1-1 .6-1.8 1.6-1.9 1-.1 1.8.6 1.9 1.6.1 1-.6 1.8-1.6 1.9h-.2c-.8 0-1.6-.7-1.7-1.6zm-.6-6.9c-.1-1 .6-1.8 1.5-1.9 1-.1 1.8.6 1.9 1.5.1 1-.6 1.8-1.5 1.9h-.2c-.9.1-1.6-.6-1.7-1.5zm-.9-6.9c-.1-1 .5-1.8 1.5-2 1-.1 1.8.6 2 1.5.1 1-.5 1.8-1.5 2h-.2c-.9 0-1.7-.6-1.8-1.5zm-1-6.9c-.1-1 .5-1.8 1.5-2 .9-.2 1.8.5 2 1.5.1 1-.5 1.9-1.5 2h-.3c-.8 0-1.6-.6-1.7-1.5zm-1.2-6.8c-.2-.9.5-1.9 1.4-2 1-.2 1.9.5 2 1.4.2 1-.5 1.9-1.4 2h-.3c-.8 0-1.5-.6-1.7-1.4zm-1.3-6.9c-.2-.9.4-1.9 1.4-2.1.9-.2 1.9.4 2.1 1.4.2.9-.4 1.9-1.4 2.1h-.4c-.8 0-1.5-.6-1.7-1.4zm-1.5-6.8c-.2-.9.4-1.9 1.3-2.1.9-.2 1.9.4 2.1 1.3.2.9-.4 1.9-1.3 2.1h-.4c-.8.1-1.5-.5-1.7-1.3zm-1.6-6.7c-.2-.9.3-1.9 1.3-2.1.9-.2 1.9.3 2.1 1.3.2.9-.3 1.9-1.3 2.1h-.4c-.8 0-1.5-.5-1.7-1.3zm-1.8-6.8c-.3-.9.3-1.9 1.2-2.1.9-.3 1.9.3 2.2 1.2.3.9-.3 1.9-1.2 2.2-.2 0-.3.1-.5.1-.8-.1-1.5-.6-1.7-1.4zm-2-6.6c-.3-.9.2-1.9 1.2-2.2.9-.3 1.9.2 2.2 1.2.3.9-.2 1.9-1.2 2.2-.2 0-.3.1-.5.1-.8-.1-1.5-.6-1.7-1.3zm-2.1-6.7c-.3-.9.2-1.9 1.1-2.2.9-.3 1.9.2 2.2 1.1.3.9-.2 1.9-1.1 2.2-.2.1-.4.1-.5.1-.8 0-1.5-.4-1.7-1.2zm-2.3-6.6c-.3-.9.1-1.9 1.1-2.2.9-.3 1.9.2 2.2 1.1.3.9-.2 1.9-1.1 2.2-.2.1-.4.1-.6.1-.6 0-1.3-.5-1.6-1.2zm-2.4-6.5c-.3-.9.1-1.9 1-2.2.9-.3 1.9.1 2.3 1 .3.9-.1 1.9-1 2.2-.2.1-.4.1-.6.1-.7 0-1.4-.4-1.7-1.1zm-2.5-6.5c-.4-.9.1-1.9 1-2.3.9-.4 1.9.1 2.3 1 .4.9-.1 1.9-1 2.3-.2.1-.4.1-.7.1-.7 0-1.3-.4-1.6-1.1zm-2.7-6.4c-.4-.9 0-1.9.9-2.3.9-.4 1.9 0 2.3.9.4.9 0 1.9-.9 2.3-.2.1-.5.1-.7.1-.6 0-1.3-.4-1.6-1zm-2.8-6.4c-.4-.9 0-1.9.9-2.3.9-.4 1.9 0 2.3.9.4.9 0 1.9-.9 2.3-.2.1-.5.1-.7.1-.6 0-1.3-.4-1.6-1zm-2.9-6.3c-.4-.9 0-1.9.8-2.3.9-.4 1.9-.1 2.3.8.4.9.1 1.9-.8 2.3-.2.1-.5.2-.8.2-.6 0-1.2-.4-1.5-1zm-3.1-6.3c-.4-.9-.1-1.9.8-2.4.9-.4 1.9-.1 2.3.8.4.9.1 1.9-.8 2.4-.2.1-.5.2-.8.2-.5 0-1.2-.4-1.5-1zm-3.2-6.2c-.4-.9-.1-1.9.7-2.4.8-.4 1.9-.1 2.4.7.5.9.1 1.9-.7 2.4-.3.1-.5.2-.8.2-.7.1-1.3-.3-1.6-.9zm-3.3-6.1c-.5-.9-.2-1.9.7-2.4.9-.5 1.9-.2 2.4.7.5.9.2 1.9-.7 2.4-.3.1-.6.2-.8.2-.7 0-1.3-.3-1.6-.9zm-3.5-6.1c-.5-.8-.2-1.9.6-2.4s1.9-.2 2.4.6.2 1.9-.6 2.4c-.3.2-.6.2-.9.2-.5.1-1.1-.2-1.5-.8zm-3.5-5.9c-.5-.8-.2-1.9.6-2.4s1.9-.2 2.4.6.2 1.9-.6 2.4c-.3.2-.6.3-.9.3-.6-.1-1.2-.4-1.5-.9zm-3.7-5.9c-.5-.8-.3-1.9.5-2.4s1.9-.3 2.4.5.3 1.9-.5 2.4c-.3.2-.6.3-1 .3-.5 0-1.1-.3-1.4-.8zm-3.9-5.9c-.5-.8-.3-1.9.5-2.4s1.9-.3 2.4.5.3 1.9-.5 2.4c-.3.2-.6.3-1 .3-.5 0-1-.3-1.4-.8zm-3.9-5.7c-.6-.8-.4-1.9.4-2.4.8-.6 1.9-.4 2.4.4.6.8.4 1.9-.4 2.4-.3.2-.7.3-1 .3-.6 0-1.1-.2-1.4-.7zm-4.1-5.6c-.6-.8-.4-1.9.4-2.4.8-.6 1.9-.4 2.4.3.6.8.4 1.9-.3 2.4-.3.2-.7.4-1.1.4-.6 0-1.1-.3-1.4-.7zm-4.3-5.5c-.6-.8-.5-1.9.3-2.5.8-.6 1.9-.5 2.5.3.6.8.5 1.9-.3 2.5-.3.2-.7.4-1.1.4-.6-.1-1.1-.3-1.4-.7z" class="st1"/><path id="Tracé_2119" d="M229.1 368.7c-1 0-1.7-.8-1.7-1.8s.8-1.7 1.8-1.7 1.7.8 1.7 1.8c-.1.9-.8 1.7-1.8 1.7zm7.1 0c-1 0-1.8-.7-1.8-1.7s.7-1.8 1.7-1.8 1.8.7 1.8 1.7-.8 1.8-1.7 1.8zm-14.2-.3c-1 0-1.7-.9-1.7-1.8 0-1 .9-1.7 1.8-1.7 1 .1 1.7.9 1.7 1.9 0 .9-.8 1.6-1.8 1.6.1 0 .1 0 0 0zm19.4-1.7c-.1-1 .7-1.8 1.6-1.9 1-.1 1.8.7 1.9 1.6.1 1-.7 1.8-1.6 1.9h-.1c-1 .1-1.8-.6-1.8-1.6zm-26.4 1.2c-1-.1-1.7-.9-1.6-1.9.1-1 .9-1.7 1.9-1.6 1 .1 1.7.9 1.6 1.9-.1.9-.8 1.6-1.7 1.6-.1.1-.2.1-.2 0zm33.3-1.7c-.1-1 .6-1.8 1.5-1.9 1-.1 1.8.6 1.9 1.6.1 1-.6 1.8-1.5 1.9h-.2c-.8-.1-1.6-.7-1.7-1.6zm-40.3 1c-1-.1-1.6-1-1.5-1.9.1-1 1-1.6 2-1.5 1 .1 1.6 1 1.5 2-.1.9-.9 1.5-1.7 1.5-.2-.1-.3-.1-.3-.1zm47.3-1.9c-.2-1 .5-1.9 1.4-2 1-.2 1.9.5 2 1.4.2 1-.5 1.9-1.4 2h-.3c-.8.1-1.6-.5-1.7-1.4zm-54.3 1c-.9-.1-1.6-1-1.5-2 .1-1 1-1.6 2-1.5 1 .1 1.6 1 1.5 2-.1.9-.9 1.5-1.7 1.5h-.3zm61.2-2.2c-.2-.9.4-1.9 1.3-2.1.9-.2 1.9.4 2.1 1.3.2.9-.4 1.9-1.3 2.1h-.4c-.8 0-1.5-.5-1.7-1.3zm-68.2 1.1c-1-.2-1.6-1.1-1.4-2 .2-1 1.1-1.6 2-1.4 1 .2 1.6 1.1 1.4 2-.2.9-.9 1.5-1.7 1.5-.1-.1-.2-.1-.3-.1zm-6.9-1.3c-1-.2-1.6-1.1-1.4-2.1.2-1 1.1-1.6 2.1-1.4.9.2 1.6 1.1 1.4 2.1-.2.8-.9 1.4-1.7 1.4h-.4zm81.9-1.5c-.3-.9.3-1.9 1.2-2.2.9-.3 1.9.3 2.2 1.2.3.9-.3 1.9-1.2 2.2-.2 0-.3.1-.5.1-.8 0-1.5-.5-1.7-1.3zm-88.8 0c-.9-.2-1.5-1.2-1.3-2.1.2-.9 1.1-1.5 2.1-1.3.9.2 1.5 1.2 1.3 2.1-.2.8-.9 1.4-1.7 1.4-.1-.1-.3-.1-.4-.1zm95.5-2c-.3-.9.2-1.9 1.1-2.2.9-.3 1.9.1 2.2 1.1.3.9-.2 1.9-1.1 2.2-.2.1-.4.1-.6.1-.7 0-1.3-.5-1.6-1.2zm-102.3.4c-.9-.2-1.5-1.2-1.3-2.1.2-.9 1.2-1.5 2.1-1.3.9.2 1.5 1.2 1.3 2.1-.2.8-.9 1.3-1.7 1.3h-.4zm-6.8-1.8c-.9-.3-1.5-1.2-1.2-2.2.2-.9 1.2-1.5 2.2-1.2.9.2 1.5 1.2 1.2 2.1-.2.8-.9 1.3-1.7 1.3-.2.1-.4 0-.5 0zm115.6-1.1c-.4-.9 0-1.9.9-2.3.9-.4 1.9 0 2.3.9.4.9 0 1.9-.9 2.3-.2.1-.5.1-.7.1-.6.1-1.3-.3-1.6-1zm-122.4-.8c-.9-.3-1.5-1.2-1.2-2.2.3-.9 1.2-1.5 2.2-1.2.9.3 1.5 1.2 1.2 2.2-.2.8-.9 1.3-1.7 1.3-.2 0-.4-.1-.5-.1zm128.8-2.1c-.4-.8-.1-1.9.7-2.4.9-.5 1.9-.1 2.4.7.4.9.1 1.9-.7 2.4-.3.1-.5.2-.8.2-.7.1-1.3-.3-1.6-.9zm-135.5.1c-.9-.3-1.4-1.3-1.2-2.2.3-.9 1.3-1.4 2.2-1.2.9.3 1.4 1.3 1.2 2.2-.2.8-.9 1.2-1.7 1.2-.2.1-.4 0-.5 0zm-6.7-2.2c-.9-.3-1.4-1.3-1.1-2.2.3-.9 1.3-1.4 2.2-1.1.9.3 1.4 1.3 1.1 2.2-.2.7-.9 1.2-1.7 1.2-.2 0-.4 0-.5-.1zm-148.9-1.1c-.5-.8-.3-1.9.5-2.4s1.9-.3 2.4.5.3 1.9-.5 2.4c-.3.2-.6.3-1 .3-.6-.1-1.1-.3-1.4-.8zm297.2-.1c-.5-.8-.3-1.9.6-2.4.8-.5 1.9-.3 2.4.6.5.8.3 1.9-.6 2.4-.3.2-.6.3-.9.3-.6-.1-1.1-.4-1.5-.9zm-155-1c-.9-.3-1.4-1.3-1.1-2.2.3-.9 1.3-1.4 2.2-1.1.9.3 1.4 1.3 1.1 2.2-.2.7-.9 1.2-1.6 1.2-.2 0-.4-.1-.6-.1zM3.4 348.1c-.4-.9-.1-1.9.8-2.4.9-.4 1.9-.1 2.4.8.4.9.1 1.9-.8 2.4-.3.1-.5.2-.8.2-.6 0-1.2-.4-1.6-1zm297.2-.3c-.6-.8-.4-1.9.4-2.5.8-.6 1.9-.4 2.5.4.6.8.4 1.9-.4 2.4-.3.2-.7.3-1 .3-.6.2-1.1-.1-1.5-.6zm-167.5.5c-.9-.3-1.4-1.3-1-2.2.3-.9 1.3-1.4 2.2-1.1.9.3 1.4 1.3 1 2.2-.3.7-.9 1.2-1.6 1.2-.2 0-.4 0-.6-.1zM9.7 345c-.4-.9 0-1.9.9-2.3.9-.4 1.9 0 2.3.9.4.9 0 1.9-.9 2.3-.2.1-.5.1-.7.1-.7 0-1.3-.4-1.6-1zm116.8.9c-.9-.3-1.4-1.4-1-2.3.3-.9 1.4-1.4 2.3-1 .9.3 1.3 1.3 1 2.3-.3.7-.9 1.1-1.6 1.1-.3 0-.5-.1-.7-.1zm179.7-2.3c-.6-.7-.6-1.8.2-2.5.7-.6 1.8-.6 2.5.2.6.7.6 1.8-.2 2.5-.3.3-.8.4-1.2.4-.5 0-1-.2-1.3-.6zm-186.2-.2c-.9-.3-1.4-1.3-1-2.2.3-.9 1.3-1.4 2.2-1 .9.3 1.4 1.3 1 2.2-.3.7-.9 1.2-1.6 1.2-.2-.1-.4-.1-.6-.2zm-103.9-1.2c-.3-.9.1-1.9 1-2.2.9-.3 1.9.1 2.3 1 .4.9-.1 1.9-1 2.3-.2.1-.4.1-.6.1-.7 0-1.4-.5-1.7-1.2zm97.3-1c-.9-.3-1.4-1.3-1.1-2.2.3-.9 1.3-1.4 2.2-1.1.9.3 1.4 1.3 1.1 2.2-.2.8-.9 1.2-1.7 1.2-.1 0-.3-.1-.5-.1zm-90.7-1.4c-.3-.9.2-1.9 1.1-2.2.9-.3 1.9.2 2.2 1.1.3.9-.2 1.9-1.1 2.2-.2.1-.4.1-.5.1-.8 0-1.4-.4-1.7-1.2zm288.6-.9c-.7-.7-.8-1.8-.1-2.5.6-.7 1.8-.8 2.5-.1.7.6.8 1.8.1 2.5-.4.4-.8.6-1.3.6-.5-.1-.9-.2-1.2-.5zm-204.5.3c-.9-.2-1.5-1.2-1.2-2.1.2-.9 1.2-1.5 2.1-1.2.9.2 1.5 1.2 1.2 2.1-.2.8-.9 1.3-1.7 1.3-.1 0-.3 0-.4-.1zm-77.4-1.4c-.2-.9.3-1.9 1.2-2.2.9-.2 1.9.3 2.1 1.2.3.9-.3 1.9-1.2 2.1-.2 0-.3.1-.5.1-.7.1-1.4-.5-1.6-1.2zm70.6-.2c-.9-.2-1.5-1.1-1.3-2.1.2-.9 1.1-1.5 2.1-1.3.9.2 1.5 1.1 1.3 2.1-.2.8-.9 1.4-1.7 1.4-.1-.1-.2-.1-.4-.1zM36.2 336c-.2-1 .4-1.9 1.3-2.1.9-.2 1.9.4 2.1 1.3.2.9-.4 1.9-1.3 2.1h-.4c-.8.1-1.5-.5-1.7-1.3zm57 .3c-1-.2-1.6-1.1-1.4-2 .2-.9 1.1-1.6 2-1.4 1 .2 1.6 1.1 1.4 2-.1.8-.9 1.5-1.7 1.5-.1-.1-.2-.1-.3-.1zm-50.1-1.7c-.2-1 .5-1.9 1.4-2 .9-.2 1.8.5 2 1.4.2.9-.5 1.9-1.4 2h-.3c-.9.1-1.6-.5-1.7-1.4zm43.3.6c-1-.1-1.6-1-1.5-1.9.1-1 1-1.6 2-1.5 1 .1 1.6 1 1.5 2-.1.9-.9 1.5-1.7 1.5-.1 0-.2 0-.3-.1zM50 333.6c-.1-1 .6-1.8 1.5-1.9 1-.1 1.8.6 1.9 1.5.1 1-.6 1.8-1.5 1.9h-.2c-.9 0-1.6-.7-1.7-1.5zm29.5 1c-1-.1-1.7-.9-1.6-1.9.1-1 .9-1.7 1.9-1.6 1 .1 1.7.9 1.6 1.9-.1.9-.8 1.6-1.7 1.6h-.2zm-22.6-1.8c-.1-1 .7-1.8 1.6-1.9 1-.1 1.8.7 1.9 1.6.1 1-.7 1.8-1.6 1.9h-.1c-.9.1-1.7-.6-1.8-1.6zm15.7 1.4c-1 0-1.7-.8-1.7-1.8s.8-1.7 1.8-1.7 1.7.8 1.7 1.8c0 .9-.8 1.7-1.8 1.7.1 0 0 0 0 0zm-8.7-1.8c0-1 .8-1.8 1.7-1.8 1 0 1.8.8 1.8 1.7 0 1-.8 1.8-1.7 1.8-1 .1-1.8-.7-1.8-1.7zm251.9 1.1c-.8-.6-1-1.7-.4-2.5s1.7-1 2.4-.4c.8.6.9 1.7.4 2.4-.3.5-.9.7-1.4.7-.3.2-.7.1-1-.2zm4-5.7c-.8-.5-1.1-1.6-.6-2.4.5-.8 1.6-1.1 2.4-.6.8.5 1.1 1.6.6 2.4-.3.5-.9.9-1.5.9-.3-.1-.6-.1-.9-.3zm3.5-6.1c-.9-.4-1.2-1.5-.8-2.3.4-.9 1.5-1.2 2.4-.8.9.4 1.2 1.5.8 2.4-.3.6-.9 1-1.6 1-.3-.1-.6-.1-.8-.3zm3.1-6.3c-.9-.4-1.3-1.4-.9-2.3.4-.9 1.4-1.3 2.3-.9.9.4 1.3 1.4.9 2.3-.3.7-.9 1-1.6 1-.3.1-.5 0-.7-.1zm2.7-6.4c-.9-.4-1.3-1.4-1-2.3.4-.9 1.4-1.3 2.3-1 .9.4 1.3 1.4 1 2.3-.3.7-.9 1.1-1.6 1.1-.3 0-.5 0-.7-.1zm2.5-6.6c-.9-.3-1.4-1.3-1.1-2.2.3-.9 1.3-1.4 2.2-1.1.9.3 1.4 1.3 1.1 2.2-.2.7-.9 1.2-1.6 1.2-.2 0-.4 0-.6-.1zm2.2-6.6c-.9-.3-1.4-1.3-1.1-2.2.3-.9 1.3-1.4 2.2-1.1.9.3 1.4 1.3 1.1 2.2-.2.7-.9 1.2-1.7 1.2-.1 0-.3 0-.5-.1zm2.2-6.7c-.9-.3-1.4-1.3-1.2-2.2.3-.9 1.3-1.5 2.2-1.2.9.3 1.4 1.3 1.2 2.2-.2.8-.9 1.2-1.7 1.2-.2.1-.4.1-.5 0zm2-6.7c-.9-.3-1.5-1.2-1.2-2.2.3-.9 1.2-1.5 2.2-1.2.9.3 1.5 1.2 1.2 2.2-.2.8-.9 1.2-1.7 1.2-.2.1-.3.1-.5 0zm2-6.7c-.9-.3-1.5-1.2-1.2-2.2.3-.9 1.2-1.5 2.2-1.2.9.3 1.5 1.2 1.2 2.2-.2.8-.9 1.2-1.7 1.2-.2.1-.3.1-.5 0zm2-6.7c-.9-.3-1.5-1.3-1.2-2.2.3-.9 1.3-1.4 2.2-1.2.9.3 1.5 1.2 1.2 2.2-.2.8-.9 1.2-1.7 1.2-.2.1-.3.1-.5 0zm2.1-6.7c-.9-.3-1.4-1.3-1.1-2.2.3-.9 1.3-1.4 2.2-1.1.9.3 1.4 1.3 1.1 2.2-.2.8-.9 1.2-1.7 1.2-.2 0-.4 0-.5-.1zm2.1-6.7c-.9-.3-1.4-1.3-1.1-2.2.3-.9 1.3-1.4 2.2-1.1.9.3 1.4 1.3 1.1 2.2-.2.7-.9 1.2-1.7 1.2-.1 0-.3 0-.5-.1zm2.3-6.6c-.9-.3-1.4-1.3-1-2.2.3-.9 1.3-1.4 2.2-1 .9.3 1.4 1.3 1 2.2-.3.7-.9 1.1-1.7 1.1-.1 0-.3 0-.5-.1zm2.5-6.5c-.9-.4-1.3-1.4-.9-2.3.4-.9 1.4-1.3 2.3-1 .9.4 1.3 1.4 1 2.3-.3.7-.9 1.1-1.6 1.1-.4 0-.6 0-.8-.1zm2.7-6.5c-.9-.4-1.3-1.4-.9-2.3.4-.9 1.5-1.3 2.3-.8.9.4 1.3 1.5.9 2.3-.3.6-.9 1-1.6 1-.2 0-.4-.1-.7-.2zm3-6.3c-.9-.5-1.2-1.5-.7-2.4.5-.8 1.5-1.2 2.4-.7.9.5 1.2 1.5.7 2.4-.3.6-.9.9-1.5.9-.3 0-.6 0-.9-.2zm3.4-6.1c-.8-.5-1.1-1.6-.6-2.4.5-.8 1.6-1.1 2.4-.6.8.5 1.1 1.6.6 2.4-.3.5-.9.8-1.5.8-.3.1-.6 0-.9-.2zm3.8-5.9c-.8-.6-1-1.7-.4-2.5s1.7-1 2.4-.4c.8.6 1 1.7.4 2.5-.3.5-.9.7-1.4.7-.3.1-.7 0-1-.3zm4.2-5.5c-.7-.6-.8-1.7-.2-2.5.6-.7 1.7-.8 2.5-.2.7.6.8 1.7.2 2.5-.4.4-.8.6-1.3.6-.4 0-.8-.1-1.2-.4zm4.8-5.2c-.7-.7-.6-1.8.1-2.5s1.8-.6 2.5.1.6 1.8-.1 2.5c-.3.3-.8.5-1.2.5-.5 0-1-.2-1.3-.6zm5.2-4.6c-.6-.8-.4-1.9.3-2.5.8-.6 1.9-.4 2.5.3.6.8.4 1.9-.3 2.5-.3.2-.7.4-1.1.4-.6-.1-1.1-.3-1.4-.7zm5.6-4.1c-.5-.8-.2-1.9.6-2.4s1.9-.2 2.4.6.2 1.9-.6 2.4c-.3.2-.6.2-.9.2-.6 0-1.2-.3-1.5-.8zm6.1-3.5c-.4-.9 0-1.9.8-2.3.9-.4 1.9 0 2.3.8.4.9 0 1.9-.8 2.3-.2.1-.5.2-.8.2-.6 0-1.3-.4-1.5-1zm6.3-2.9c-.3-.9.1-1.9 1-2.2.9-.3 1.9.1 2.2 1 .3.9-.1 1.9-1 2.2-.2.1-.4.1-.6.1-.6.1-1.3-.4-1.6-1.1z" class="st1"/><path id="Tracé_2662" d="M89.9 253.4c-1 0-1.8-.8-1.8-1.8s.8-1.7 1.8-1.7 1.8.8 1.7 1.8c.1.9-.7 1.7-1.7 1.7zm5.3-1.8c0-1 .7-1.8 1.7-1.8s1.8.8 1.8 1.7c0 1-.8 1.8-1.7 1.8-1 0-1.8-.7-1.8-1.7zm-14-.1c0-1 .8-1.7 1.8-1.7s1.7.8 1.7 1.8-.8 1.7-1.8 1.7-1.7-.8-1.7-1.8zm21-.1c0-1 .7-1.8 1.6-1.8 1 0 1.8.7 1.8 1.7s-.7 1.8-1.7 1.8h-.1c-.8 0-1.6-.8-1.6-1.7zM75.9 253c-1-.1-1.7-.9-1.6-1.8 0-1 .9-1.7 1.8-1.7 1 .1 1.7.9 1.7 1.8s-.8 1.7-1.7 1.7h-.2zm33.3-2c-.1-1 .6-1.8 1.6-1.9 1-.1 1.8.6 1.9 1.6.1 1-.6 1.8-1.6 1.9h-.1c-1 0-1.7-.7-1.8-1.6zm-40.4 1.6c-1-.1-1.7-.9-1.6-1.9.1-1 .9-1.7 1.9-1.6 1 .1 1.7.9 1.6 1.9-.1.9-.8 1.6-1.7 1.6h-.2zm-7-.6c-1-.1-1.7-.9-1.6-1.9.1-1 .9-1.7 1.9-1.6 1 .1 1.7.9 1.6 1.9-.1.9-.9 1.6-1.8 1.6h-.1zm54.4-1.6c-.1-1 .6-1.8 1.5-1.9 1-.1 1.8.6 1.9 1.5.1 1-.6 1.8-1.5 1.9h-.2c-.9 0-1.6-.6-1.7-1.5zm-61.4.9c-1-.1-1.6-1-1.5-1.9.1-1 1-1.6 1.9-1.5 1 .1 1.6 1 1.5 1.9-.1.9-.9 1.5-1.7 1.5h-.2zm68.3-1.8c-.1-1 .5-1.8 1.5-2 1-.1 1.9.5 2 1.5.1 1-.5 1.9-1.5 2h-.3c-.8 0-1.6-.6-1.7-1.5zm-75.3.9c-.9-.1-1.6-1-1.5-2 .1-1 1-1.6 2-1.5 1 .1 1.6 1 1.5 2-.1.9-.9 1.5-1.7 1.5h-.3zm82.2-2c-.2-1 .4-1.9 1.4-2.1.9-.2 1.9.5 2 1.4.2 1-.4 1.9-1.4 2h-.3c-.8.1-1.5-.4-1.7-1.3zm-89.1 1c-1-.1-1.6-1-1.5-2 .1-1 1-1.6 2-1.5 1 .2 1.6 1 1.5 2-.1.9-.9 1.5-1.7 1.5h-.3zm96-2.4c-.2-.9.4-1.9 1.3-2.1.9-.2 1.9.4 2.1 1.3.2.9-.4 1.9-1.3 2.1h-.4c-.8.1-1.5-.5-1.7-1.3zm-103 1.3c-1-.2-1.6-1.1-1.4-2 .2-1 1.1-1.6 2-1.4 1 .2 1.6 1.1 1.4 2-.1.8-.9 1.5-1.7 1.5-.1-.1-.2-.1-.3-.1zM27 247c-1-.2-1.6-1.1-1.4-2.1.2-.9 1.1-1.6 2-1.4 1 .2 1.6 1.1 1.4 2-.2.8-.9 1.4-1.7 1.4-.1.2-.2.2-.3.1zm116.7-1.6c-.3-.9.3-1.9 1.2-2.2.9-.3 1.9.3 2.2 1.2.3.9-.3 1.9-1.2 2.2-.2 0-.3.1-.5.1-.8-.1-1.5-.6-1.7-1.3zm-123.6.3c-.9-.2-1.5-1.1-1.4-2.1.2-.9 1.1-1.5 2.1-1.4 1 .2 1.6 1.1 1.4 2.1-.2.8-.9 1.4-1.7 1.4h-.4zm130.3-2.3c-.3-.9.2-1.9 1.1-2.2.9-.3 1.9.2 2.2 1.1.3.9-.2 1.9-1.1 2.2-.2.1-.4.1-.5.1-.8 0-1.5-.5-1.7-1.2zm-137.2.8c-.9-.2-1.5-1.2-1.3-2.1.2-.9 1.1-1.5 2.1-1.3.9.2 1.5 1.2 1.3 2.1-.2.8-.9 1.4-1.7 1.4-.1-.1-.3-.1-.4-.1zm-6.8-1.7c-.9-.2-1.5-1.2-1.3-2.1.2-.9 1.2-1.5 2.1-1.3.9.2 1.5 1.2 1.3 2.1-.2.8-.9 1.3-1.7 1.3-.2.1-.3.1-.4 0zm150.6-1.4c-.4-.9.1-1.9 1-2.3.9-.4 1.9.1 2.3 1 .4.9-.1 1.9-1 2.3-.2.1-.4.1-.6.1-.8 0-1.4-.4-1.7-1.1zm-157.5-.4c-.9-.3-1.5-1.2-1.2-2.2.3-.9 1.2-1.5 2.2-1.2.9.3 1.5 1.2 1.2 2.2-.2.8-.9 1.3-1.7 1.3-.2 0-.3 0-.5-.1zm164-2.3c-.4-.9 0-1.9.8-2.3.9-.4 1.9 0 2.3.8.4.9 0 1.9-.8 2.3-.2.1-.5.2-.8.2-.6 0-1.2-.4-1.5-1zm6.3-3.1c-.5-.8-.2-1.9.7-2.4.9-.5 1.9-.2 2.4.7.5.9.2 1.9-.7 2.4-.3.2-.6.2-.8.2-.7 0-1.3-.3-1.6-.9zm6.1-3.4c-.5-.8-.3-1.9.5-2.4s1.9-.3 2.4.5.3 1.9-.5 2.4c-.3.2-.6.3-.9.3-.6 0-1.2-.3-1.5-.8zm5.8-3.9c-.6-.8-.4-1.9.4-2.5.8-.6 1.9-.4 2.4.4.6.8.4 1.9-.4 2.4-.3.2-.7.4-1 .4-.5 0-1.1-.2-1.4-.7zm5.5-4.3c-.6-.7-.6-1.8.2-2.5.7-.6 1.8-.6 2.5.2.6.7.6 1.8-.2 2.5-.3.3-.7.4-1.1.4-.6 0-1-.2-1.4-.6zm5.2-4.7c-.7-.7-.7-1.8 0-2.5s1.8-.7 2.5 0 .7 1.8 0 2.5c-.4.4-.8.5-1.2.5-.5 0-1-.1-1.3-.5zm0-2.5zm4.8-2.6c-.8-.6-.8-1.7-.2-2.5.6-.7 1.7-.8 2.5-.2.8.6.8 1.7.2 2.5-.3.4-.8.6-1.3.6s-.9-.1-1.2-.4zm4.4-5.4c-.8-.6-.9-1.7-.3-2.5.6-.8 1.7-.9 2.5-.3.8.6.9 1.7.3 2.5-.3.5-.9.7-1.4.7-.4-.1-.8-.2-1.1-.4zm4.2-5.6c-.8-.6-.9-1.7-.3-2.5.6-.8 1.7-.9 2.5-.3.8.6.9 1.7.3 2.5-.4.4-.9.7-1.4.7-.4 0-.8-.1-1.1-.4zm4.3-5.5c-.8-.6-.9-1.7-.3-2.5.6-.8 1.7-.9 2.5-.3.8.6.9 1.7.3 2.5-.3.5-.9.7-1.4.7-.4-.1-.8-.2-1.1-.4zm4.2-5.6c-.8-.6-.9-1.7-.3-2.5.6-.8 1.7-.9 2.5-.3.8.6.9 1.7.3 2.5-.3.5-.9.7-1.4.7-.4 0-.7-.2-1.1-.4zm4.3-5.6c-.8-.6-.9-1.7-.3-2.4.6-.8 1.7-.9 2.5-.3.8.6.9 1.7.3 2.5-.3.5-.9.7-1.4.7-.4-.1-.8-.2-1.1-.5zm4.3-5.5c-.8-.6-.9-1.7-.3-2.5.6-.8 1.7-.9 2.5-.3.8.6.9 1.7.3 2.5-.4.4-.9.7-1.4.7-.4 0-.8-.2-1.1-.4zm4.2-5.6c-.8-.6-.9-1.7-.3-2.4.6-.8 1.7-.9 2.5-.3.8.6.9 1.7.3 2.5-.3.4-.9.7-1.4.7-.4-.1-.7-.2-1.1-.5zm4.4-5.5c-.8-.6-.9-1.7-.3-2.5.6-.8 1.7-.9 2.5-.3.8.6.9 1.7.3 2.5-.4.4-.9.7-1.4.7-.4 0-.8-.1-1.1-.4zm4.3-5.5c-.8-.6-.9-1.7-.3-2.5.6-.8 1.7-.9 2.5-.3.8.6.9 1.7.3 2.5-.3.4-.9.7-1.4.7-.4 0-.8-.1-1.1-.4zm4.4-5.4c-.8-.6-.9-1.7-.2-2.5.6-.8 1.7-.9 2.5-.3.8.6.9 1.7.2 2.5-.3.4-.9.6-1.4.6-.4.1-.8-.1-1.1-.3zm4.4-5.5c-.8-.6-.8-1.7-.2-2.5.6-.7 1.7-.8 2.5-.2.7.6.8 1.7.2 2.5-.3.4-.8.6-1.3.6s-.9-.1-1.2-.4zm4.5-5.3c-.7-.6-.8-1.7-.2-2.5.6-.7 1.7-.8 2.5-.2.7.6.8 1.7.2 2.5-.3.4-.8.6-1.3.6s-.9-.2-1.2-.4zm4.5-5.4c-.7-.6-.8-1.7-.2-2.5.6-.7 1.7-.8 2.5-.2.7.6.8 1.7.2 2.5-.3.4-.8.6-1.3.6-.4.1-.8-.1-1.2-.4zm4.6-5.2c-.7-.6-.8-1.8-.1-2.5.6-.7 1.8-.8 2.5-.1.7.6.8 1.8.1 2.5-.3.4-.8.6-1.3.6-.4-.1-.8-.2-1.2-.5zm4.8-5.2c-.7-.7-.8-1.8-.1-2.5.7-.7 1.8-.8 2.5-.1.7.7.7 1.8.1 2.5-.3.4-.8.6-1.3.6s-.9-.2-1.2-.5zm4.8-5.1c-.7-.7-.7-1.8 0-2.5s1.8-.7 2.5 0 .7 1.8 0 2.5c-.3.4-.8.5-1.2.5-.5 0-1-.1-1.3-.5zm4.9-5c-.7-.7-.7-1.8 0-2.5s1.8-.7 2.5 0 .7 1.8 0 2.5c-.3.3-.8.5-1.2.5-.5.1-1-.1-1.3-.5zm5.1-4.8c-.7-.7-.6-1.8.1-2.5s1.8-.6 2.5.1.6 1.8-.1 2.5c-.3.3-.8.5-1.2.5-.5 0-1-.2-1.3-.6zm5.1-4.7c-.6-.7-.6-1.8.2-2.5.7-.6 1.8-.6 2.5.2.6.7.6 1.8-.2 2.5-.3.3-.7.4-1.1.4-.5 0-1-.2-1.4-.6zm5.4-4.5c-.6-.8-.5-1.9.3-2.5.8-.6 1.9-.5 2.5.3.6.8.5 1.9-.3 2.5-.3.3-.7.4-1.1.4-.6-.1-1.1-.3-1.4-.7zm5.5-4.4c-.6-.8-.4-1.9.4-2.5.8-.6 1.9-.4 2.5.4.6.8.4 1.9-.4 2.5-.3.2-.7.4-1.1.4-.6-.1-1.1-.3-1.4-.8zm5.6-4.1c-.6-.8-.3-1.9.5-2.4.8-.6 1.9-.3 2.4.5s.3 1.9-.5 2.4c-.3.2-.7.3-1 .3-.5 0-1.1-.3-1.4-.8zm5.8-3.9c-.5-.8-.2-1.9.6-2.4s1.9-.2 2.4.6.2 1.9-.6 2.4c-.3.2-.6.3-.9.3-.6 0-1.1-.3-1.5-.9zm6.1-3.5c-.5-.9-.1-1.9.7-2.4.8-.5 1.9-.1 2.4.7.5.8.1 1.9-.7 2.4-.3.1-.5.2-.8.2-.7 0-1.3-.3-1.6-.9zm6.2-3.3c-.4-.9 0-1.9.8-2.3.9-.4 1.9 0 2.3.8.4.9 0 1.9-.8 2.3-.2.1-.5.2-.7.2-.7.1-1.3-.3-1.6-1zm6.3-2.8c-.3-.9.1-1.9 1-2.3.9-.4 1.9.1 2.3 1 .4.9-.1 1.9-1 2.3-.2.1-.4.1-.6.1-.7 0-1.4-.4-1.7-1.1zm6.6-2.5c-.3-.9.2-1.9 1.1-2.2.9-.3 1.9.2 2.2 1.1.3.9-.2 1.9-1.1 2.2-.2.1-.4.1-.5.1-.8 0-1.5-.4-1.7-1.2zm6.7-2c-.2-.9.3-1.9 1.3-2.1.9-.2 1.9.3 2.1 1.3.2.9-.3 1.9-1.3 2.1h-.4c-.8 0-1.5-.5-1.7-1.3zm6.8-1.6c-.2-1 .5-1.9 1.4-2 1-.2 1.9.5 2 1.4.2 1-.5 1.9-1.4 2h-.3c-.8.1-1.6-.5-1.7-1.4zm6.9-1c-.1-1 .6-1.8 1.6-1.9 1-.1 1.8.6 1.9 1.6.1 1-.6 1.8-1.6 1.9h-.2c-.8-.1-1.6-.7-1.7-1.6zm22.5 1.5c-1-.1-1.7-.9-1.6-1.9.1-1 .9-1.7 1.9-1.6 1 .1 1.7.9 1.6 1.9-.1.9-.9 1.6-1.7 1.6h-.2zm-15.5-2.1c0-1 .7-1.8 1.7-1.8s1.8.7 1.8 1.7-.7 1.8-1.7 1.8h-.1c-.9-.1-1.7-.8-1.7-1.7zm8.7 1.6c-1 0-1.7-.8-1.7-1.8s.8-1.7 1.8-1.7 1.7.8 1.7 1.8c-.1 1-.8 1.7-1.8 1.7z" class="st1"/></g></g></svg>