<svg xmlns="http://www.w3.org/2000/svg" width="42" height="42" viewBox="0 0 42 42">
  <g id="Groupe_40102" data-name="Groupe 40102" transform="translate(-164.18 -406)">
    <path id="Tracé_2313" data-name="Tracé 2313" d="M-3181.664,2130.409l3.67-8.917v-5.917l-1.1-5.736-3.6-4.792-2.721-2.72-4.881-2.107-7.2-1.792v18.794l1.4,2.642,6.663,6.685,5.969,5.9Z" transform="translate(3382.581 -1691.136)" fill="#ffefef"/>
    <g id="Groupe_40101" data-name="Groupe 40101" transform="translate(164.18 406)">
      <path id="Tracé_2307" data-name="Tracé 2307" d="M21.75,42.75a21,21,0,1,1,21-21A21.024,21.024,0,0,1,21.75,42.75Zm0-39.2a18.2,18.2,0,1,0,18.2,18.2A18.221,18.221,0,0,0,21.75,3.55Z" transform="translate(-0.75 -0.75)" fill="#ff7469"/>
      <path id="Tracé_2308" data-name="Tracé 2308" d="M21.446,26.138a1.393,1.393,0,0,1-.994-.413l-8.79-8.792a1.388,1.388,0,0,1-.306-.459l-.017-.047a1.381,1.381,0,0,1-.088-.488V8.907a1.407,1.407,0,0,1,2.813,0v6.45l8.378,8.38a1.408,1.408,0,0,1-1,2.4Z" transform="translate(8.316 5.053)" fill="#ff7469"/>
    </g>
  </g>
</svg>
